<?xml version="1.0" encoding="utf-8"?>
<svg version="1.1" xmlns:xlink="http://www.w3.org/1999/xlink" width="20px" height="9px" xmlns="http://www.w3.org/2000/svg">
  <g transform="matrix(1 0 0 1 -1284 -388 )">
    <path d="M 19.5286195286195 6.72727272727273  C 19.8428731762065 6.86868686868687  20 7.04040404040404  20 7.24242424242424  C 20 7.44444444444445  19.8428731762065 7.61616161616162  19.5286195286195 7.75757575757576  L 17.2390572390572 8.78787878787879  C 16.9248035914703 8.92929292929293  16.5432098765432 9  16.0942760942761 9  C 15.645342312009 9  15.2637485970819 8.92929292929293  14.9494949494949 8.78787878787879  L 10 6.56060606060606  L 5.05050505050505 8.78787878787879  C 4.73625140291807 8.92929292929293  4.35465768799102 9  3.90572390572391 9  C 3.45679012345679 9  3.07519640852974 8.92929292929293  2.76094276094276 8.78787878787879  L 0.471380471380471 7.75757575757576  C 0.157126823793491 7.61616161616162  0 7.44444444444445  0 7.24242424242424  C 0 7.04040404040404  0.157126823793491 6.86868686868687  0.471380471380471 6.72727272727273  L 5.42087542087542 4.5  L 0.471380471380471 2.27272727272727  C 0.157126823793491 2.13131313131313  0 1.95959595959596  0 1.75757575757576  C 0 1.55555555555556  0.157126823793491 1.38383838383838  0.471380471380471 1.24242424242424  L 2.76094276094276 0.212121212121212  C 3.07519640852974 0.0707070707070704  3.45679012345679 0  3.90572390572391 0  C 4.35465768799102 0  4.73625140291807 0.0707070707070704  5.05050505050505 0.212121212121212  L 10 2.43939393939394  L 14.9494949494949 0.212121212121212  C 15.2637485970819 0.0707070707070704  15.645342312009 0  16.0942760942761 0  C 16.5432098765432 0  16.9248035914703 0.0707070707070704  17.2390572390572 0.212121212121212  L 19.5286195286195 1.24242424242424  C 19.8428731762065 1.38383838383838  20 1.55555555555556  20 1.75757575757576  C 20 1.95959595959596  19.8428731762065 2.13131313131313  19.5286195286195 2.27272727272727  L 14.5791245791246 4.5  L 19.5286195286195 6.72727272727273  Z " fill-rule="nonzero" fill="#ffffff" stroke="none" transform="matrix(1 0 0 1 1284 388 )" />
  </g>
</svg>