<?xml version="1.0" encoding="utf-8"?>
<svg version="1.1" xmlns:xlink="http://www.w3.org/1999/xlink" width="24px" height="32px" xmlns="http://www.w3.org/2000/svg">
  <g transform="matrix(1 0 0 1 -2755 -1959 )">
    <path d="M 6.3046875 15.0649350649351  L 22.9453125 0.311688311688311  C 23.2421875 0.048484848484847  23.4921875 -0.0415584415584433  23.6953125 0.0415584415584398  C 23.8984375 0.124675324675323  24 0.346320346320343  24 0.706493506493505  L 24 31.2935064935065  C 24 31.6536796536797  23.8984375 31.8753246753247  23.6953125 31.9584415584416  C 23.4921875 32.0415584415584  23.2421875 31.9515151515152  22.9453125 31.6883116883117  L 6.3046875 16.9350649350649  C 6.1640625 16.8103896103896  6.0625 16.6787878787879  6 16.5402597402597  L 6 30.6285714285714  C 6 30.9887445887446  5.8515625 31.3004329004329  5.5546875 31.5636363636364  C 5.2578125 31.8268398268398  4.90625 31.9584415584416  4.5 31.9584415584416  L 1.5 31.9584415584416  C 1.09375 31.9584415584416  0.7421875 31.8268398268398  0.4453125 31.5636363636364  C 0.1484375 31.3004329004329  0 30.9887445887446  0 30.6285714285714  L 0 1.37142857142857  C 0 1.01125541125541  0.1484375 0.699567099567098  0.4453125 0.436363636363637  C 0.7421875 0.17316017316017  1.09375 0.0415584415584398  1.5 0.0415584415584398  L 4.5 0.0415584415584398  C 4.90625 0.0415584415584398  5.2578125 0.17316017316017  5.5546875 0.436363636363637  C 5.8515625 0.699567099567098  6 1.01125541125541  6 1.37142857142857  L 6 15.4597402597403  C 6.0625 15.3212121212121  6.1640625 15.1896103896104  6.3046875 15.0649350649351  Z " fill-rule="nonzero" fill="#ffffff" stroke="none" transform="matrix(1 0 0 1 2755 1959 )" />
  </g>
</svg>