<?xml version="1.0" encoding="utf-8"?>
<svg version="1.1" xmlns:xlink="http://www.w3.org/1999/xlink" width="24px" height="32px" xmlns="http://www.w3.org/2000/svg">
  <g transform="matrix(1 0 0 1 -3259 -1959 )">
    <path d="M 17.6953125 16.9350649350649  L 1.0546875 31.6883116883117  C 0.7578125 31.9515151515152  0.5078125 32.0415584415584  0.3046875 31.9584415584416  C 0.1015625 31.8753246753247  0 31.6536796536797  0 31.2935064935065  L 0 0.706493506493505  C 0 0.346320346320343  0.1015625 0.124675324675323  0.3046875 0.0415584415584398  C 0.5078125 -0.0415584415584433  0.7578125 0.048484848484847  1.0546875 0.311688311688311  L 17.6953125 15.0649350649351  C 17.8359375 15.1896103896104  17.9375 15.3212121212121  18 15.4597402597403  L 18 1.37142857142857  C 18 1.01125541125541  18.1484375 0.699567099567098  18.4453125 0.436363636363637  C 18.7421875 0.17316017316017  19.09375 0.0415584415584398  19.5 0.0415584415584398  L 22.5 0.0415584415584398  C 22.90625 0.0415584415584398  23.2578125 0.17316017316017  23.5546875 0.436363636363637  C 23.8515625 0.699567099567098  24 1.01125541125541  24 1.37142857142857  L 24 30.6285714285714  C 24 30.9887445887446  23.8515625 31.3004329004329  23.5546875 31.5636363636364  C 23.2578125 31.8268398268398  22.90625 31.9584415584416  22.5 31.9584415584416  L 19.5 31.9584415584416  C 19.09375 31.9584415584416  18.7421875 31.8268398268398  18.4453125 31.5636363636364  C 18.1484375 31.3004329004329  18 30.9887445887446  18 30.6285714285714  L 18 16.5402597402597  C 17.9375 16.6787878787879  17.8359375 16.8103896103896  17.6953125 16.9350649350649  Z " fill-rule="nonzero" fill="#ffffff" stroke="none" transform="matrix(1 0 0 1 3259 1959 )" />
  </g>
</svg>