<?xml version="1.0" encoding="utf-8"?>
<svg version="1.1" xmlns:xlink="http://www.w3.org/1999/xlink" width="10px" height="14px" xmlns="http://www.w3.org/2000/svg">
  <g transform="matrix(1 0 0 1 -3181 -1968 )">
    <path d="M 9.814453125 8.46164772727273  C 9.93815104166667 8.5875946969697  10 8.73674242424242  10 8.90909090909091  C 10 9.08143939393939  9.93815104166667 9.23058712121212  9.814453125 9.35653409090909  L 5.439453125 13.8110795454545  C 5.31575520833333 13.9370265151515  5.16927083333333 14  5 14  C 4.83072916666667 14  4.68424479166667 13.9370265151515  4.560546875 13.8110795454545  L 0.185546875 9.35653409090909  C 0.0618489583333333 9.23058712121212  0 9.08143939393939  0 8.90909090909091  C 0 8.73674242424242  0.0618489583333333 8.5875946969697  0.185546875 8.46164772727273  C 0.309244791666667 8.33570075757576  0.455729166666667 8.27272727272727  0.625 8.27272727272727  L 9.375 8.27272727272727  C 9.54427083333333 8.27272727272727  9.69075520833333 8.33570075757576  9.814453125 8.46164772727273  Z M 9.814453125 4.64346590909091  C 9.93815104166667 4.76941287878788  10 4.9185606060606  10 5.09090909090909  C 10 5.26325757575757  9.93815104166667 5.4124053030303  9.814453125 5.53835227272727  C 9.69075520833333 5.66429924242424  9.54427083333333 5.72727272727273  9.375 5.72727272727273  L 0.625 5.72727272727273  C 0.455729166666667 5.72727272727273  0.309244791666667 5.66429924242424  0.185546875 5.53835227272727  C 0.0618489583333333 5.4124053030303  0 5.26325757575757  0 5.09090909090909  C 0 4.9185606060606  0.0618489583333333 4.76941287878788  0.185546875 4.64346590909091  L 4.560546875 0.188920454545455  C 4.68424479166667 0.0629734848484835  4.83072916666667 0  5 0  C 5.16927083333333 0  5.31575520833333 0.0629734848484835  5.439453125 0.188920454545455  L 9.814453125 4.64346590909091  Z " fill-rule="nonzero" fill="#000000" stroke="none" transform="matrix(1 0 0 1 3181 1968 )" />
  </g>
</svg>