<?xml version="1.0" encoding="utf-8"?>
<svg version="1.1" xmlns:xlink="http://www.w3.org/1999/xlink" width="12px" height="12px" viewBox="682 745  12 12" xmlns="http://www.w3.org/2000/svg">
  <path d="M 688 745  C 691.36 745  694 747.64  694 751  C 694 754.36  691.36 757  688 757  C 684.64 757  682 754.36  682 751  C 682 747.64  684.64 745  688 745  Z " fill-rule="nonzero" fill="#ffffff" stroke="none" />
  <path d="M 688 745.5  C 691.08 745.5  693.5 747.92  693.5 751  C 693.5 754.08  691.08 756.5  688 756.5  C 684.92 756.5  682.5 754.08  682.5 751  C 682.5 747.92  684.92 745.5  688 745.5  Z " stroke-width="1" stroke="#797979" fill="none" />
  <path d="M 688 754  C 686.32 754  685 752.68  685 751  C 685 749.32  686.32 748  688 748  C 689.68 748  691 749.32  691 751  C 691 752.68  689.68 754  688 754  " fill-rule="nonzero" fill="#797979" stroke="none" />
</svg>