<?xml version="1.0" encoding="utf-8"?>
<svg version="1.1" xmlns:xlink="http://www.w3.org/1999/xlink" width="12px" height="12px" viewBox="558 745  12 12" xmlns="http://www.w3.org/2000/svg">
  <path d="M 564 745  C 567.36 745  570 747.64  570 751  C 570 754.36  567.36 757  564 757  C 560.64 757  558 754.36  558 751  C 558 747.64  560.64 745  564 745  Z " fill-rule="nonzero" fill="#ffffff" stroke="none" />
  <path d="M 564 745.5  C 567.08 745.5  569.5 747.92  569.5 751  C 569.5 754.08  567.08 756.5  564 756.5  C 560.92 756.5  558.5 754.08  558.5 751  C 558.5 747.92  560.92 745.5  564 745.5  Z " stroke-width="1" stroke="#797979" fill="none" />
  <path d="M 564 754  C 562.32 754  561 752.68  561 751  C 561 749.32  562.32 748  564 748  C 565.68 748  567 749.32  567 751  C 567 752.68  565.68 754  564 754  " fill-rule="nonzero" fill="#797979" stroke="none" />
</svg>