<?xml version="1.0" encoding="utf-8"?>
<svg version="1.1" xmlns:xlink="http://www.w3.org/1999/xlink" width="12px" height="12px" viewBox="3598 745  12 12" xmlns="http://www.w3.org/2000/svg">
  <path d="M 3604 745  C 3607.36 745  3610 747.64  3610 751  C 3610 754.36  3607.36 757  3604 757  C 3600.64 757  3598 754.36  3598 751  C 3598 747.64  3600.64 745  3604 745  Z " fill-rule="nonzero" fill="#ffffff" stroke="none" />
  <path d="M 3604 745.5  C 3607.08 745.5  3609.5 747.92  3609.5 751  C 3609.5 754.08  3607.08 756.5  3604 756.5  C 3600.92 756.5  3598.5 754.08  3598.5 751  C 3598.5 747.92  3600.92 745.5  3604 745.5  Z " stroke-width="1" stroke="#797979" fill="none" />
  <path d="M 3604 754  C 3602.32 754  3601 752.68  3601 751  C 3601 749.32  3602.32 748  3604 748  C 3605.68 748  3607 749.32  3607 751  C 3607 752.68  3605.68 754  3604 754  " fill-rule="nonzero" fill="#797979" stroke="none" />
</svg>