<?xml version="1.0" encoding="utf-8"?>
<svg version="1.1" xmlns:xlink="http://www.w3.org/1999/xlink" width="46px" height="50px" xmlns="http://www.w3.org/2000/svg">
  <defs>
    <filter x="1488px" y="2320px" width="46px" height="50px" filterUnits="userSpaceOnUse" id="filter2114">
      <feOffset dx="1" dy="1" in="SourceAlpha" result="shadowOffsetInner" />
      <feGaussianBlur stdDeviation="2.5" in="shadowOffsetInner" result="shadowGaussian" />
      <feComposite in2="shadowGaussian" operator="atop" in="SourceAlpha" result="shadowComposite" />
      <feColorMatrix type="matrix" values="0 0 0 0 0  0 0 0 0 0  0 0 0 0 0  0 0 0 0.698039215686274 0  " in="shadowComposite" />
    </filter>
    <g id="widget2115">
      <path d="M 1510 2363.14538246967  C 1503 2353.47408151979  1492.5 2347.67130094987  1492.5 2338  C 1492.5 2332.98571428571  1496 2324.5  1510 2324.5  C 1524 2324.5  1527.5 2332.98571428571  1527.5 2338  C 1527.5 2347.67130094987  1517 2353.47408151979  1510 2363.14538246967  Z " fill-rule="nonzero" fill="#009dd9" stroke="none" />
      <path d="M 1510 2364  C 1502.8 2354  1492 2348  1492 2338  C 1492 2332.8  1495.6 2324  1510 2324  C 1524.4 2324  1528 2332.8  1528 2338  C 1528 2348  1517.2 2354  1510 2364  Z M 1510 2362.29076493933  C 1516.8 2352.94816303959  1527 2347.34260189974  1527 2338  C 1527 2333.17142857143  1523.6 2325  1510 2325  C 1496.4 2325  1493 2333.17142857143  1493 2338  C 1493 2347.34260189974  1503.2 2352.94816303959  1510 2362.29076493933  Z " fill-rule="nonzero" fill="#ffffff" stroke="none" />
    </g>
  </defs>
  <g transform="matrix(1 0 0 1 -1488 -2320 )">
    <use xlink:href="#widget2115" filter="url(#filter2114)" />
    <use xlink:href="#widget2115" />
  </g>
</svg>