<?xml version="1.0" encoding="utf-8"?>
<svg version="1.1" xmlns:xlink="http://www.w3.org/1999/xlink" width="46px" height="50px" xmlns="http://www.w3.org/2000/svg">
  <defs>
    <mask fill="white" id="clip2116">
      <path d="M 36 14  C 36 24  25.2 30  18 40  C 10.8 30  0 24  0 14  C 0 8.8160911813784  3.57775437511896 0.0544279876380642  17.8666294546035 0.000252430258569802  C 17.9109830280638 8.42658964756993E-05  17.9554398054136 0  18 0  C 32.4000000000001 0  36 8.80000000000018  36 14  Z " fill-rule="evenodd" />
    </mask>
    <filter x="1488px" y="2410px" width="46px" height="50px" filterUnits="userSpaceOnUse" id="filter2117">
      <feOffset dx="1" dy="1" in="SourceAlpha" result="shadowOffsetInner" />
      <feGaussianBlur stdDeviation="2.5" in="shadowOffsetInner" result="shadowGaussian" />
      <feComposite in2="shadowGaussian" operator="atop" in="SourceAlpha" result="shadowComposite" />
      <feColorMatrix type="matrix" values="0 0 0 0 0  0 0 0 0 0  0 0 0 0 0  0 0 0 0.698039215686274 0  " in="shadowComposite" />
    </filter>
    <g id="widget2118">
      <path d="M 36 14  C 36 24  25.2 30  18 40  C 10.8 30  0 24  0 14  C 0 8.8160911813784  3.57775437511896 0.0544279876380642  17.8666294546035 0.000252430258569802  C 17.9109830280638 8.42658964756993E-05  17.9554398054136 0  18 0  C 32.4000000000001 0  36 8.80000000000018  36 14  Z " fill-rule="nonzero" fill="#009dd9" stroke="none" transform="matrix(1 0 0 1 1492 2414 )" />
      <path d="M 36 14  C 36 24  25.2 30  18 40  C 10.8 30  0 24  0 14  C 0 8.8160911813784  3.57775437511896 0.0544279876380642  17.8666294546035 0.000252430258569802  C 17.9109830280638 8.42658964756993E-05  17.9554398054136 0  18 0  C 32.4000000000001 0  36 8.80000000000018  36 14  Z " stroke-width="2" stroke="#ffffff" fill="none" transform="matrix(1 0 0 1 1492 2414 )" mask="url(#clip2116)" />
    </g>
  </defs>
  <g transform="matrix(1 0 0 1 -1488 -2410 )">
    <use xlink:href="#widget2118" filter="url(#filter2117)" />
    <use xlink:href="#widget2118" />
  </g>
</svg>