<?xml version="1.0" encoding="utf-8"?>
<svg version="1.1" xmlns:xlink="http://www.w3.org/1999/xlink" width="28px" height="28px" xmlns="http://www.w3.org/2000/svg">
  <g transform="matrix(1 0 0 1 -240 -532 )">
    <path d="M 241 535  A 2 2 0 0 1 243 533 L 265 533  A 2 2 0 0 1 267 535 L 267 557  A 2 2 0 0 1 265 559 L 243 559  A 2 2 0 0 1 241 557 L 241 535  Z " fill-rule="nonzero" fill="#2db3ff" stroke="none" />
    <path d="M 240.5 535  A 2.5 2.5 0 0 1 243 532.5 L 265 532.5  A 2.5 2.5 0 0 1 267.5 535 L 267.5 557  A 2.5 2.5 0 0 1 265 559.5 L 243 559.5  A 2.5 2.5 0 0 1 240.5 557 L 240.5 535  Z " stroke-width="1" stroke="#ffffff" fill="none" stroke-opacity="0.298039215686275" />
  </g>
</svg>