<?xml version="1.0" encoding="utf-8"?>
<svg version="1.1" xmlns:xlink="http://www.w3.org/1999/xlink" width="28px" height="28px" xmlns="http://www.w3.org/2000/svg">
  <g transform="matrix(1 0 0 1 -312 -496 )">
    <path d="M 313 499  A 2 2 0 0 1 315 497 L 337 497  A 2 2 0 0 1 339 499 L 339 521  A 2 2 0 0 1 337 523 L 315 523  A 2 2 0 0 1 313 521 L 313 499  Z " fill-rule="nonzero" fill="#98e264" stroke="none" />
    <path d="M 312.5 499  A 2.5 2.5 0 0 1 315 496.5 L 337 496.5  A 2.5 2.5 0 0 1 339.5 499 L 339.5 521  A 2.5 2.5 0 0 1 337 523.5 L 315 523.5  A 2.5 2.5 0 0 1 312.5 521 L 312.5 499  Z " stroke-width="1" stroke="#ffffff" fill="none" stroke-opacity="0.298039215686275" />
  </g>
</svg>