<?xml version="1.0" encoding="utf-8"?>
<svg version="1.1" xmlns:xlink="http://www.w3.org/1999/xlink" width="28px" height="28px" xmlns="http://www.w3.org/2000/svg">
  <g transform="matrix(1 0 0 1 -204 -496 )">
    <path d="M 205 499  A 2 2 0 0 1 207 497 L 229 497  A 2 2 0 0 1 231 499 L 231 521  A 2 2 0 0 1 229 523 L 207 523  A 2 2 0 0 1 205 521 L 205 499  Z " fill-rule="nonzero" fill="#ff5c5c" stroke="none" />
    <path d="M 204.5 499  A 2.5 2.5 0 0 1 207 496.5 L 229 496.5  A 2.5 2.5 0 0 1 231.5 499 L 231.5 521  A 2.5 2.5 0 0 1 229 523.5 L 207 523.5  A 2.5 2.5 0 0 1 204.5 521 L 204.5 499  Z " stroke-width="1" stroke="#ffffff" fill="none" stroke-opacity="0.298039215686275" />
  </g>
</svg>