<?xml version="1.0" encoding="utf-8"?>
<svg version="1.1" xmlns:xlink="http://www.w3.org/1999/xlink" width="28px" height="28px" xmlns="http://www.w3.org/2000/svg">
  <g transform="matrix(1 0 0 1 -312 -460 )">
    <path d="M 313 463  A 2 2 0 0 1 315 461 L 337 461  A 2 2 0 0 1 339 463 L 339 485  A 2 2 0 0 1 337 487 L 315 487  A 2 2 0 0 1 313 485 L 313 463  Z " fill-rule="nonzero" fill="#d9d9d9" stroke="none" />
    <path d="M 312.5 463  A 2.5 2.5 0 0 1 315 460.5 L 337 460.5  A 2.5 2.5 0 0 1 339.5 463 L 339.5 485  A 2.5 2.5 0 0 1 337 487.5 L 315 487.5  A 2.5 2.5 0 0 1 312.5 485 L 312.5 463  Z " stroke-width="1" stroke="#ffffff" fill="none" stroke-opacity="0.298039215686275" />
  </g>
</svg>