<?xml version="1.0" encoding="utf-8"?>
<svg version="1.1" xmlns:xlink="http://www.w3.org/1999/xlink" width="28px" height="28px" xmlns="http://www.w3.org/2000/svg">
  <g transform="matrix(1 0 0 1 -348 -496 )">
    <path d="M 349 499  A 2 2 0 0 1 351 497 L 373 497  A 2 2 0 0 1 375 499 L 375 521  A 2 2 0 0 1 373 523 L 351 523  A 2 2 0 0 1 349 521 L 349 499  Z " fill-rule="nonzero" fill="#36b72a" stroke="none" />
    <path d="M 348.5 499  A 2.5 2.5 0 0 1 351 496.5 L 373 496.5  A 2.5 2.5 0 0 1 375.5 499 L 375.5 521  A 2.5 2.5 0 0 1 373 523.5 L 351 523.5  A 2.5 2.5 0 0 1 348.5 521 L 348.5 499  Z " stroke-width="1" stroke="#ffffff" fill="none" stroke-opacity="0.298039215686275" />
  </g>
</svg>