<?xml version="1.0" encoding="utf-8"?>
<svg version="1.1" xmlns:xlink="http://www.w3.org/1999/xlink" width="28px" height="28px" xmlns="http://www.w3.org/2000/svg">
  <g transform="matrix(1 0 0 1 -276 -532 )">
    <path d="M 277 535  A 2 2 0 0 1 279 533 L 301 533  A 2 2 0 0 1 303 535 L 303 557  A 2 2 0 0 1 301 559 L 279 559  A 2 2 0 0 1 277 557 L 277 535  Z " fill-rule="nonzero" fill="#5271ff" stroke="none" />
    <path d="M 276.5 535  A 2.5 2.5 0 0 1 279 532.5 L 301 532.5  A 2.5 2.5 0 0 1 303.5 535 L 303.5 557  A 2.5 2.5 0 0 1 301 559.5 L 279 559.5  A 2.5 2.5 0 0 1 276.5 557 L 276.5 535  Z " stroke-width="1" stroke="#ffffff" fill="none" stroke-opacity="0.298039215686275" />
  </g>
</svg>