<?xml version="1.0" encoding="utf-8"?>
<svg version="1.1" xmlns:xlink="http://www.w3.org/1999/xlink" width="28px" height="28px" xmlns="http://www.w3.org/2000/svg">
  <g transform="matrix(1 0 0 1 -204 -532 )">
    <path d="M 205 535  A 2 2 0 0 1 207 533 L 229 533  A 2 2 0 0 1 231 535 L 231 557  A 2 2 0 0 1 229 559 L 207 559  A 2 2 0 0 1 205 557 L 205 535  Z " fill-rule="nonzero" fill="#46d9e5" stroke="none" />
    <path d="M 204.5 535  A 2.5 2.5 0 0 1 207 532.5 L 229 532.5  A 2.5 2.5 0 0 1 231.5 535 L 231.5 557  A 2.5 2.5 0 0 1 229 559.5 L 207 559.5  A 2.5 2.5 0 0 1 204.5 557 L 204.5 535  Z " stroke-width="1" stroke="#ffffff" fill="none" stroke-opacity="0.298039215686275" />
  </g>
</svg>