<?xml version="1.0" encoding="utf-8"?>
<svg version="1.1" xmlns:xlink="http://www.w3.org/1999/xlink" width="28px" height="28px" xmlns="http://www.w3.org/2000/svg">
  <g transform="matrix(1 0 0 1 -240 -460 )">
    <path d="M 241 463  A 2 2 0 0 1 243 461 L 265 461  A 2 2 0 0 1 267 463 L 267 485  A 2 2 0 0 1 265 487 L 243 487  A 2 2 0 0 1 241 485 L 241 463  Z " fill-rule="nonzero" fill="#666666" stroke="none" />
    <path d="M 240.5 463  A 2.5 2.5 0 0 1 243 460.5 L 265 460.5  A 2.5 2.5 0 0 1 267.5 463 L 267.5 485  A 2.5 2.5 0 0 1 265 487.5 L 243 487.5  A 2.5 2.5 0 0 1 240.5 485 L 240.5 463  Z " stroke-width="1" stroke="#ffffff" fill="none" stroke-opacity="0.298039215686275" />
  </g>
</svg>