<?xml version="1.0" encoding="utf-8"?>
<svg version="1.1" xmlns:xlink="http://www.w3.org/1999/xlink" width="28px" height="28px" xmlns="http://www.w3.org/2000/svg">
  <g transform="matrix(1 0 0 1 -348 -532 )">
    <path d="M 349 535  A 2 2 0 0 1 351 533 L 373 533  A 2 2 0 0 1 375 535 L 375 557  A 2 2 0 0 1 373 559 L 351 559  A 2 2 0 0 1 349 557 L 349 535  Z " fill-rule="nonzero" fill="#ff63b1" stroke="none" />
    <path d="M 348.5 535  A 2.5 2.5 0 0 1 351 532.5 L 373 532.5  A 2.5 2.5 0 0 1 375.5 535 L 375.5 557  A 2.5 2.5 0 0 1 373 559.5 L 351 559.5  A 2.5 2.5 0 0 1 348.5 557 L 348.5 535  Z " stroke-width="1" stroke="#ffffff" fill="none" stroke-opacity="0.298039215686275" />
  </g>
</svg>