<?xml version="1.0" encoding="utf-8"?>
<svg version="1.1" xmlns:xlink="http://www.w3.org/1999/xlink" width="28px" height="28px" xmlns="http://www.w3.org/2000/svg">
  <g transform="matrix(1 0 0 1 -276 -460 )">
    <path d="M 277 463  A 2 2 0 0 1 279 461 L 301 461  A 2 2 0 0 1 303 463 L 303 485  A 2 2 0 0 1 301 487 L 279 487  A 2 2 0 0 1 277 485 L 277 463  Z " fill-rule="nonzero" fill="#a8a8a8" stroke="none" />
    <path d="M 276.5 463  A 2.5 2.5 0 0 1 279 460.5 L 301 460.5  A 2.5 2.5 0 0 1 303.5 463 L 303.5 485  A 2.5 2.5 0 0 1 301 487.5 L 279 487.5  A 2.5 2.5 0 0 1 276.5 485 L 276.5 463  Z " stroke-width="1" stroke="#ffffff" fill="none" stroke-opacity="0.298039215686275" />
  </g>
</svg>