<?xml version="1.0" encoding="utf-8"?>
<svg version="1.1" xmlns:xlink="http://www.w3.org/1999/xlink" width="28px" height="28px" xmlns="http://www.w3.org/2000/svg">
  <g transform="matrix(1 0 0 1 -240 -496 )">
    <path d="M 241 499  A 2 2 0 0 1 243 497 L 265 497  A 2 2 0 0 1 267 499 L 267 521  A 2 2 0 0 1 265 523 L 243 523  A 2 2 0 0 1 241 521 L 241 499  Z " fill-rule="nonzero" fill="#ffbe4a" stroke="none" />
    <path d="M 240.5 499  A 2.5 2.5 0 0 1 243 496.5 L 265 496.5  A 2.5 2.5 0 0 1 267.5 499 L 267.5 521  A 2.5 2.5 0 0 1 265 523.5 L 243 523.5  A 2.5 2.5 0 0 1 240.5 521 L 240.5 499  Z " stroke-width="1" stroke="#ffffff" fill="none" stroke-opacity="0.298039215686275" />
  </g>
</svg>