<?xml version="1.0" encoding="utf-8"?>
<svg version="1.1" xmlns:xlink="http://www.w3.org/1999/xlink" width="28px" height="28px" xmlns="http://www.w3.org/2000/svg">
  <g transform="matrix(1 0 0 1 -348 -460 )">
    <path d="M 349 463  A 2 2 0 0 1 351 461 L 373 461  A 2 2 0 0 1 375 463 L 375 485  A 2 2 0 0 1 373 487 L 351 487  A 2 2 0 0 1 349 485 L 349 463  Z " fill-rule="nonzero" fill="#ffffff" stroke="none" />
    <path d="M 348.5 463  A 2.5 2.5 0 0 1 351 460.5 L 373 460.5  A 2.5 2.5 0 0 1 375.5 463 L 375.5 485  A 2.5 2.5 0 0 1 373 487.5 L 351 487.5  A 2.5 2.5 0 0 1 348.5 485 L 348.5 463  Z " stroke-width="1" stroke="#ffffff" fill="none" stroke-opacity="0.298039215686275" />
  </g>
</svg>