<?xml version="1.0" encoding="utf-8"?>
<svg version="1.1" xmlns:xlink="http://www.w3.org/1999/xlink" width="18px" height="12px" xmlns="http://www.w3.org/2000/svg">
  <g transform="matrix(1 0 0 1 -368 -284 )">
    <path d="M 0.4482421875 8.3296875  C 0.1494140625 7.5890625  0 6.8125  0 6  C 0 5.1875  0.1494140625 4.4109375  0.4482421875 3.6703125  C 0.7470703125 2.9296875  1.14697265625 2.2921875  1.64794921875 1.7578125  C 2.14892578125 1.2234375  2.74658203125 0.796875  3.44091796875 0.478124999999999  C 4.13525390625 0.159375  4.86328125 0  5.625 0  L 12.375 0  C 13.13671875 0  13.86474609375 0.159375  14.55908203125 0.478124999999999  C 15.25341796875 0.796875  15.85107421875 1.2234375  16.35205078125 1.7578125  C 16.85302734375 2.2921875  17.2529296875 2.9296875  17.5517578125 3.6703125  C 17.8505859375 4.4109375  18 5.1875  18 6  C 18 6.8125  17.8505859375 7.5890625  17.5517578125 8.3296875  C 17.2529296875 9.0703125  16.85302734375 9.7078125  16.35205078125 10.2421875  C 15.85107421875 10.7765625  15.25341796875 11.203125  14.55908203125 11.521875  C 13.86474609375 11.840625  13.13671875 12  12.375 12  L 5.625 12  C 4.86328125 12  4.13525390625 11.840625  3.44091796875 11.521875  C 2.74658203125 11.203125  2.14892578125 10.7765625  1.64794921875 10.2421875  C 1.14697265625 9.7078125  0.7470703125 9.0703125  0.4482421875 8.3296875  Z M 10.63037109375 10.4203125  C 11.18408203125 10.6734375  11.765625 10.8  12.375 10.8  C 12.984375 10.8  13.56591796875 10.6734375  14.11962890625 10.4203125  C 14.67333984375 10.1671875  15.15234375 9.825  15.556640625 9.39375  C 15.9609375 8.9625  16.28173828125 8.4515625  16.51904296875 7.8609375  C 16.75634765625 7.2703125  16.875 6.65  16.875 6  C 16.875 5.35  16.75634765625 4.7296875  16.51904296875 4.1390625  C 16.28173828125 3.5484375  15.9609375 3.0375  15.556640625 2.60625  C 15.15234375 2.175  14.67333984375 1.8328125  14.11962890625 1.5796875  C 13.56591796875 1.3265625  12.984375 1.2  12.375 1.2  C 11.765625 1.2  11.18408203125 1.3265625  10.63037109375 1.5796875  C 10.07666015625 1.8328125  9.59765625 2.175  9.193359375 2.60625  C 8.7890625 3.0375  8.46826171875 3.5484375  8.23095703125 4.1390625  C 7.99365234375 4.7296875  7.875 5.35  7.875 6  C 7.875 6.65  7.99365234375 7.2703125  8.23095703125 7.8609375  C 8.46826171875 8.4515625  8.7890625 8.9625  9.193359375 9.39375  C 9.59765625 9.825  10.07666015625 10.1671875  10.63037109375 10.4203125  Z " fill-rule="nonzero" fill="#ffffff" stroke="none" transform="matrix(1 0 0 1 368 284 )" />
  </g>
</svg>