<?xml version="1.0" encoding="utf-8"?>
<svg version="1.1" xmlns:xlink="http://www.w3.org/1999/xlink" width="16px" height="16px" xmlns="http://www.w3.org/2000/svg">
  <g transform="matrix(1 0 0 1 -1062 -856 )">
    <path d="M 1070 857  C 1073.92 857  1077 860.08  1077 864  C 1077 867.92  1073.92 871  1070 871  C 1066.08 871  1063 867.92  1063 864  C 1063 860.08  1066.08 857  1070 857  Z " fill-rule="nonzero" fill="#ffffff" stroke="none" />
    <path d="M 1070 857  C 1073.92 857  1077 860.08  1077 864  C 1077 867.92  1073.92 871  1070 871  C 1066.08 871  1063 867.92  1063 864  C 1063 860.08  1066.08 857  1070 857  Z " stroke-width="2" stroke="#005eba" fill="none" />
  </g>
</svg>