<?xml version="1.0" encoding="utf-8"?>
<svg version="1.1" xmlns:xlink="http://www.w3.org/1999/xlink" width="190px" height="32px" xmlns="http://www.w3.org/2000/svg">
  <g transform="matrix(1 0 0 1 -474 -406 )">
    <path d="M 475 409  A 2 2 0 0 1 477 407 L 661 407  A 2 2 0 0 1 663 409 L 663 435  A 2 2 0 0 1 661 437 L 477 437  A 2 2 0 0 1 475 435 L 475 409  Z " fill-rule="nonzero" fill="#ff4e62" stroke="none" fill-opacity="0" />
    <path d="M 474.5 409  A 2.5 2.5 0 0 1 477 406.5 L 661 406.5  A 2.5 2.5 0 0 1 663.5 409 L 663.5 435  A 2.5 2.5 0 0 1 661 437.5 L 477 437.5  A 2.5 2.5 0 0 1 474.5 435 L 474.5 409  Z " stroke-width="1" stroke-dasharray="9,4" stroke="#fbfdff" fill="none" stroke-dashoffset="0.5" />
  </g>
</svg>