<?xml version="1.0" encoding="utf-8"?>
<svg version="1.1" xmlns:xlink="http://www.w3.org/1999/xlink" width="300px" height="32px" viewBox="698 504  300 32" xmlns="http://www.w3.org/2000/svg">
  <path d="M 699 509  A 4 4 0 0 1 703 505 L 993 505  A 4 4 0 0 1 997 509 L 997 531  A 4 4 0 0 1 993 535 L 703 535  A 4 4 0 0 1 699 531 L 699 509  Z " fill-rule="nonzero" fill="#f0f0f0" stroke="none" />
  <path d="M 698.5 509  A 4.5 4.5 0 0 1 703 504.5 L 993 504.5  A 4.5 4.5 0 0 1 997.5 509 L 997.5 531  A 4.5 4.5 0 0 1 993 535.5 L 703 535.5  A 4.5 4.5 0 0 1 698.5 531 L 698.5 509  Z " stroke-width="1" stroke="#ffffff" fill="none" stroke-opacity="0.298039215686275" />
</svg>