<?xml version="1.0" encoding="utf-8"?>
<svg version="1.1" xmlns:xlink="http://www.w3.org/1999/xlink" width="196px" height="32px" xmlns="http://www.w3.org/2000/svg">
  <defs>
    <mask fill="white" id="clip2339">
      <path d="M 0 29  L 0 3  C 0 1.31999999999999  1.31999999999999 0  3 0  L 82.7849462365581 0  L 196 0  L 196 32  L 49 32  L 3 32  C 1.31999999999999 32  0 30.68  0 29  Z " fill-rule="evenodd" />
    </mask>
  </defs>
  <g transform="matrix(1 0 0 1 -307 -402 )">
    <path d="M 0 29  L 0 3  C 0 1.31999999999999  1.31999999999999 0  3 0  L 82.7849462365581 0  L 196 0  L 196 32  L 49 32  L 3 32  C 1.31999999999999 32  0 30.68  0 29  Z " fill-rule="nonzero" fill="#ff4e62" stroke="none" fill-opacity="0" transform="matrix(1 0 0 1 307 402 )" />
    <path d="M 0 29  L 0 3  C 0 1.31999999999999  1.31999999999999 0  3 0  L 82.7849462365581 0  L 196 0  L 196 32  L 49 32  L 3 32  C 1.31999999999999 32  0 30.68  0 29  Z " stroke-width="2" stroke="#fbfdff" fill="none" transform="matrix(1 0 0 1 307 402 )" mask="url(#clip2339)" />
  </g>
</svg>