<?xml version="1.0" encoding="utf-8"?>
<svg version="1.1" xmlns:xlink="http://www.w3.org/1999/xlink" width="40px" height="50px" xmlns="http://www.w3.org/2000/svg">
  <defs>
    <mask fill="white" id="clip2249">
      <path d="M 30 14  C 30 17.6310825842489  28.8133715339727 20.7347747391524  27.0146140628472 23.6940761053295  C 23.8595941703611 28.8846895304441  18.8213504494506 33.6310825842489  15 40  C 9 30  0 24  0 14  C 0 8.79999999999995  3 0  15 0  C 27 0  30 8.79999999999995  30 14  Z " fill-rule="evenodd" />
    </mask>
    <filter x="1770px" y="453px" width="40px" height="50px" filterUnits="userSpaceOnUse" id="filter2250">
      <feOffset dx="1" dy="1" in="SourceAlpha" result="shadowOffsetInner" />
      <feGaussianBlur stdDeviation="2.5" in="shadowOffsetInner" result="shadowGaussian" />
      <feComposite in2="shadowGaussian" operator="atop" in="SourceAlpha" result="shadowComposite" />
      <feColorMatrix type="matrix" values="0 0 0 0 0  0 0 0 0 0  0 0 0 0 0  0 0 0 0.698039215686274 0  " in="shadowComposite" />
    </filter>
    <g id="widget2251">
      <path d="M 30 14  C 30 17.6310825842489  28.8133715339727 20.7347747391524  27.0146140628472 23.6940761053295  C 23.8595941703611 28.8846895304441  18.8213504494506 33.6310825842489  15 40  C 9 30  0 24  0 14  C 0 8.79999999999995  3 0  15 0  C 27 0  30 8.79999999999995  30 14  Z " fill-rule="nonzero" fill="#009dd9" stroke="none" transform="matrix(1 0 0 1 1774 457 )" />
      <path d="M 30 14  C 30 17.6310825842489  28.8133715339727 20.7347747391524  27.0146140628472 23.6940761053295  C 23.8595941703611 28.8846895304441  18.8213504494506 33.6310825842489  15 40  C 9 30  0 24  0 14  C 0 8.79999999999995  3 0  15 0  C 27 0  30 8.79999999999995  30 14  Z " stroke-width="2" stroke="#ffffff" fill="none" transform="matrix(1 0 0 1 1774 457 )" mask="url(#clip2249)" />
    </g>
  </defs>
  <g transform="matrix(1 0 0 1 -1770 -453 )">
    <use xlink:href="#widget2251" filter="url(#filter2250)" />
    <use xlink:href="#widget2251" />
  </g>
</svg>