<?xml version="1.0" encoding="utf-8"?>
<svg version="1.1" xmlns:xlink="http://www.w3.org/1999/xlink" width="8px" height="10px" xmlns="http://www.w3.org/2000/svg">
  <g transform="matrix(1 0 0 1 -108 -132 )">
    <path d="M 2.22222222222222 3.18181818181818  L 2.22222222222222 4.54545454545455  L 5.77777777777778 4.54545454545455  L 5.77777777777778 3.18181818181818  C 5.77777777777778 2.67992424242424  5.60416666666667 2.25142045454545  5.25694444444444 1.89630681818182  C 4.90972222222222 1.54119318181818  4.49074074074074 1.36363636363636  4 1.36363636363636  C 3.50925925925926 1.36363636363636  3.09027777777778 1.54119318181818  2.74305555555556 1.89630681818182  C 2.39583333333333 2.25142045454545  2.22222222222222 2.67992424242424  2.22222222222222 3.18181818181818  Z M 7.80555555555556 4.74431818181818  C 7.93518518518519 4.87689393939394  8 5.03787878787879  8 5.22727272727273  L 8 9.31818181818182  C 8 9.50757575757576  7.93518518518519 9.66856060606061  7.80555555555556 9.80113636363636  C 7.67592592592593 9.93371212121212  7.51851851851852 10  7.33333333333333 10  L 0.666666666666667 10  C 0.481481481481482 10  0.324074074074074 9.93371212121212  0.194444444444444 9.80113636363636  C 0.0648148148148148 9.66856060606061  0 9.50757575757576  0 9.31818181818182  L 0 5.22727272727273  C 0 5.03787878787879  0.0648148148148148 4.87689393939394  0.194444444444444 4.74431818181818  C 0.324074074074074 4.61174242424242  0.481481481481482 4.54545454545455  0.666666666666667 4.54545454545455  L 0.888888888888889 4.54545454545455  L 0.888888888888889 3.18181818181818  C 0.888888888888889 2.31060606060606  1.19444444444444 1.5625  1.80555555555556 0.9375  C 2.41666666666667 0.3125  3.14814814814815 0  4 0  C 4.85185185185185 0  5.58333333333333 0.3125  6.19444444444444 0.9375  C 6.80555555555556 1.5625  7.11111111111111 2.31060606060606  7.11111111111111 3.18181818181818  L 7.11111111111111 4.54545454545455  L 7.33333333333333 4.54545454545455  C 7.51851851851852 4.54545454545455  7.67592592592593 4.61174242424242  7.80555555555556 4.74431818181818  Z " fill-rule="nonzero" fill="#ffffff" stroke="none" transform="matrix(1 0 0 1 108 132 )" />
  </g>
</svg>