<?xml version="1.0" encoding="utf-8"?>
<svg version="1.1" xmlns:xlink="http://www.w3.org/1999/xlink" width="24px" height="24px" xmlns="http://www.w3.org/2000/svg">
  <g transform="matrix(1 0 0 1 -16 -591 )">
    <path d="M 19 596  A 2 2 0 0 1 21 594 L 35 594  A 2 2 0 0 1 37 596 L 37 610  A 2 2 0 0 1 35 612 L 21 612  A 2 2 0 0 1 19 610 L 19 596  Z " fill-rule="nonzero" fill="#ffffff" stroke="none" fill-opacity="0" />
    <path d="M 17.5 596  A 3.5 3.5 0 0 1 21 592.5 L 35 592.5  A 3.5 3.5 0 0 1 38.5 596 L 38.5 610  A 3.5 3.5 0 0 1 35 613.5 L 21 613.5  A 3.5 3.5 0 0 1 17.5 610 L 17.5 596  Z " stroke-width="3" stroke="#ffffff" fill="none" stroke-opacity="0.972549019607843" />
  </g>
</svg>