<?xml version="1.0" encoding="utf-8"?>
<svg version="1.1" xmlns:xlink="http://www.w3.org/1999/xlink" width="422px" height="220px" xmlns="http://www.w3.org/2000/svg">
  <g transform="matrix(1 0 0 1 -609 -601 )">
    <path d="M 610 606  A 4 4 0 0 1 614 602 L 1026 602  A 4 4 0 0 1 1030 606 L 1030 816  A 4 4 0 0 1 1026 820 L 614 820  A 4 4 0 0 1 610 816 L 610 606  Z " fill-rule="nonzero" fill="#ffffff" stroke="none" fill-opacity="0.0470588235294118" />
    <path d="M 609.5 606  A 4.5 4.5 0 0 1 614 601.5 L 1026 601.5  A 4.5 4.5 0 0 1 1030.5 606 L 1030.5 816  A 4.5 4.5 0 0 1 1026 820.5 L 614 820.5  A 4.5 4.5 0 0 1 609.5 816 L 609.5 606  Z " stroke-width="1" stroke-dasharray="9,4" stroke="#ffffff" fill="none" stroke-opacity="0.298039215686275" stroke-dashoffset="0.5" />
  </g>
</svg>