<?xml version="1.0" encoding="utf-8"?>
<svg version="1.1" xmlns:xlink="http://www.w3.org/1999/xlink" width="12px" height="12px" xmlns="http://www.w3.org/2000/svg">
  <g transform="matrix(1 0 0 1 -795 -637 )">
    <path d="M 11.6953125 0.5390625  C 11.8984375 0.627604166666667  12 0.78125  12 1  L 12 4.5  C 12 4.63541666666667  11.9505208333333 4.75260416666667  11.8515625 4.8515625  C 11.7526041666667 4.95052083333333  11.6354166666667 5  11.5 5  L 8 5  C 7.78125 5  7.62760416666667 4.89583333333333  7.5390625 4.6875  C 7.45052083333333 4.484375  7.48697916666667 4.3046875  7.6484375 4.1484375  L 8.7265625 3.0703125  C 7.95572916666667 2.35677083333333  7.046875 2  6 2  C 5.45833333333333 2  4.94140625 2.10546875  4.44921875 2.31640625  C 3.95703125 2.52734375  3.53125 2.8125  3.171875 3.171875  C 2.8125 3.53125  2.52734375 3.95703125  2.31640625 4.44921875  C 2.10546875 4.94140625  2 5.45833333333333  2 6  C 2 6.54166666666667  2.10546875 7.05859375  2.31640625 7.55078125  C 2.52734375 8.04296875  2.8125 8.46875  3.171875 8.828125  C 3.53125 9.1875  3.95703125 9.47265625  4.44921875 9.68359375  C 4.94140625 9.89453125  5.45833333333333 10  6 10  C 6.61979166666667 10  7.20572916666667 9.86458333333333  7.7578125 9.59375  C 8.30989583333333 9.32291666666667  8.77604166666667 8.94010416666667  9.15625 8.4453125  C 9.19270833333333 8.39322916666667  9.25260416666667 8.36197916666666  9.3359375 8.3515625  C 9.4140625 8.3515625  9.47916666666667 8.375  9.53125 8.421875  L 10.6015625 9.5  C 10.6484375 9.54166666666667  10.6731770833333 9.59505208333333  10.67578125 9.66015625  C 10.6783854166667 9.72526041666667  10.6588541666667 9.78385416666667  10.6171875 9.8359375  C 10.0494791666667 10.5234375  9.36197916666667 11.0559895833333  8.5546875 11.43359375  C 7.74739583333333 11.8111979166667  6.89583333333333 12  6 12  C 5.1875 12  4.41145833333333 11.8411458333333  3.671875 11.5234375  C 2.93229166666667 11.2057291666667  2.29427083333333 10.7786458333333  1.7578125 10.2421875  C 1.22135416666667 9.70572916666667  0.794270833333333 9.06770833333333  0.4765625 8.328125  C 0.158854166666667 7.58854166666667  0 6.8125  0 6  C 0 5.1875  0.158854166666667 4.41145833333333  0.4765625 3.671875  C 0.794270833333333 2.93229166666667  1.22135416666667 2.29427083333333  1.7578125 1.7578125  C 2.29427083333333 1.22135416666667  2.93229166666667 0.794270833333333  3.671875 0.4765625  C 4.41145833333333 0.158854166666667  5.1875 0  6 0  C 6.765625 0  7.50651041666667 0.14453125  8.22265625 0.43359375  C 8.93880208333333 0.72265625  9.57552083333333 1.13020833333333  10.1328125 1.65625  L 11.1484375 0.6484375  C 11.2994791666667 0.486979166666667  11.4817708333333 0.450520833333332  11.6953125 0.5390625  Z " fill-rule="nonzero" fill="#000000" stroke="none" transform="matrix(1 0 0 1 795 637 )" />
  </g>
</svg>