<?xml version="1.0" encoding="utf-8"?>
<svg version="1.1" xmlns:xlink="http://www.w3.org/1999/xlink" width="300px" height="94px" viewBox="2079 654  300 94" xmlns="http://www.w3.org/2000/svg">
  <path d="M 2080 659  A 4 4 0 0 1 2084 655 L 2374 655  A 4 4 0 0 1 2378 659 L 2378 743  A 4 4 0 0 1 2374 747 L 2084 747  A 4 4 0 0 1 2080 743 L 2080 659  Z " fill-rule="nonzero" fill="#ffffff" stroke="none" fill-opacity="0.0470588235294118" />
  <path d="M 2079.5 659  A 4.5 4.5 0 0 1 2084 654.5 L 2374 654.5  A 4.5 4.5 0 0 1 2378.5 659 L 2378.5 743  A 4.5 4.5 0 0 1 2374 747.5 L 2084 747.5  A 4.5 4.5 0 0 1 2079.5 743 L 2079.5 659  Z " stroke-width="1" stroke="#ffffff" fill="none" stroke-opacity="0.298039215686275" />
</svg>