<?xml version="1.0" encoding="utf-8"?>
<svg version="1.1" xmlns:xlink="http://www.w3.org/1999/xlink" width="59px" height="32px" viewBox="2464 534  59 32" xmlns="http://www.w3.org/2000/svg">
  <path d="M 2465 539  A 4 4 0 0 1 2469 535 L 2518 535  A 4 4 0 0 1 2522 539 L 2522 561  A 4 4 0 0 1 2518 565 L 2469 565  A 4 4 0 0 1 2465 561 L 2465 539  Z " fill-rule="nonzero" fill="#ffffff" stroke="none" fill-opacity="0.0470588235294118" />
  <path d="M 2464.5 539  A 4.5 4.5 0 0 1 2469 534.5 L 2518 534.5  A 4.5 4.5 0 0 1 2522.5 539 L 2522.5 561  A 4.5 4.5 0 0 1 2518 565.5 L 2469 565.5  A 4.5 4.5 0 0 1 2464.5 561 L 2464.5 539  Z " stroke-width="1" stroke="#ffffff" fill="none" stroke-opacity="0.298039215686275" />
</svg>