<?xml version="1.0" encoding="utf-8"?>
<svg version="1.1" xmlns:xlink="http://www.w3.org/1999/xlink" width="300px" height="32px" viewBox="2079 594  300 32" xmlns="http://www.w3.org/2000/svg">
  <path d="M 2080 599  A 4 4 0 0 1 2084 595 L 2374 595  A 4 4 0 0 1 2378 599 L 2378 621  A 4 4 0 0 1 2374 625 L 2084 625  A 4 4 0 0 1 2080 621 L 2080 599  Z " fill-rule="nonzero" fill="#ffffff" stroke="none" fill-opacity="0.0470588235294118" />
  <path d="M 2079.5 599  A 4.5 4.5 0 0 1 2084 594.5 L 2374 594.5  A 4.5 4.5 0 0 1 2378.5 599 L 2378.5 621  A 4.5 4.5 0 0 1 2374 625.5 L 2084 625.5  A 4.5 4.5 0 0 1 2079.5 621 L 2079.5 599  Z " stroke-width="1" stroke-dasharray="9,4" stroke="#ffffff" fill="none" stroke-opacity="0.298039215686275" stroke-dashoffset="0.5" />
</svg>