<?xml version="1.0" encoding="utf-8"?>
<svg version="1.1" xmlns:xlink="http://www.w3.org/1999/xlink" width="18px" height="6px" xmlns="http://www.w3.org/2000/svg">
  <g transform="matrix(1 0 0 1 -416 -245 )">
    <path d="M 17.8091517857143 2.578125  C 17.9363839285714 2.696875  18 2.8375  18 3  C 18 3.1625  17.9363839285714 3.303125  17.8091517857143 3.421875  L 15.2377232142857 5.821875  C 15.1104910714286 5.940625  14.9598214285714 6  14.7857142857143 6  C 14.6116071428571 6  14.4609375 5.940625  14.3337053571429 5.821875  C 14.2064732142857 5.703125  14.1428571428571 5.5625  14.1428571428571 5.4  L 14.1428571428571 4.2  L 3.85714285714286 4.2  L 3.85714285714286 5.4  C 3.85714285714286 5.5625  3.79352678571429 5.703125  3.66629464285714 5.821875  C 3.5390625 5.940625  3.38839285714286 6  3.21428571428571 6  C 3.04017857142857 6  2.88950892857143 5.940625  2.76227678571429 5.821875  L 0.190848214285714 3.421875  C 0.0636160714285714 3.303125  0 3.1625  0 3  C 0 2.8375  0.0636160714285714 2.696875  0.190848214285714 2.578125  L 2.76227678571429 0.178125  C 2.88950892857143 0.0593749999999993  3.04017857142857 0  3.21428571428571 0  C 3.38839285714286 0  3.5390625 0.0593749999999993  3.66629464285714 0.178125  C 3.79352678571429 0.296875  3.85714285714286 0.4375  3.85714285714286 0.6  L 3.85714285714286 1.8  L 14.1428571428571 1.8  L 14.1428571428571 0.6  C 14.1428571428571 0.4375  14.2064732142857 0.296875  14.3337053571429 0.178125  C 14.4609375 0.0593749999999993  14.6116071428571 0  14.7857142857143 0  C 14.9598214285714 0  15.1104910714286 0.0593749999999993  15.2377232142857 0.178125  L 17.8091517857143 2.578125  Z " fill-rule="nonzero" fill="#005eba" stroke="none" transform="matrix(1 0 0 1 416 245 )" />
  </g>
</svg>