<?xml version="1.0" encoding="utf-8"?>
<svg version="1.1" xmlns:xlink="http://www.w3.org/1999/xlink" width="24px" height="24px" xmlns="http://www.w3.org/2000/svg">
  <g transform="matrix(1 0 0 1 -413 -236 )">
    <path d="M 425 237  C 431.16 237  436 241.84  436 248  C 436 254.16  431.16 259  425 259  C 418.84 259  414 254.16  414 248  C 414 241.84  418.84 237  425 237  Z " fill-rule="nonzero" fill="#ffffff" stroke="none" />
    <path d="M 425 237  C 431.16 237  436 241.84  436 248  C 436 254.16  431.16 259  425 259  C 418.84 259  414 254.16  414 248  C 414 241.84  418.84 237  425 237  Z " stroke-width="2" stroke="#005eba" fill="none" />
  </g>
</svg>