<?xml version="1.0" encoding="utf-8"?>
<svg version="1.1" xmlns:xlink="http://www.w3.org/1999/xlink" width="40px" height="50px" xmlns="http://www.w3.org/2000/svg">
  <defs>
    <mask fill="white" id="clip2056">
      <path d="M 30 14  C 30 24  21 30  15 40  C 9 30  0 24  0 14  C 0 8.80000000000001  3 0  15 0  C 15.4087875543472 0  15.8071309046576 0.0102121106137929  16.1952672431881 0.0301461345102894  C 27.2009767180381 0.595570069115126  30 8.97719900373471  30 14  Z " fill-rule="evenodd" />
    </mask>
    <filter x="1224px" y="358px" width="40px" height="50px" filterUnits="userSpaceOnUse" id="filter2057">
      <feOffset dx="1" dy="1" in="SourceAlpha" result="shadowOffsetInner" />
      <feGaussianBlur stdDeviation="2.5" in="shadowOffsetInner" result="shadowGaussian" />
      <feComposite in2="shadowGaussian" operator="atop" in="SourceAlpha" result="shadowComposite" />
      <feColorMatrix type="matrix" values="0 0 0 0 0  0 0 0 0 0  0 0 0 0 0  0 0 0 0.698039215686274 0  " in="shadowComposite" />
    </filter>
    <g id="widget2058">
      <path d="M 30 14  C 30 24  21 30  15 40  C 9 30  0 24  0 14  C 0 8.80000000000001  3 0  15 0  C 15.4087875543472 0  15.8071309046576 0.0102121106137929  16.1952672431881 0.0301461345102894  C 27.2009767180381 0.595570069115126  30 8.97719900373471  30 14  Z " fill-rule="nonzero" fill="#009dd9" stroke="none" transform="matrix(1 0 0 1 1228 362 )" />
      <path d="M 30 14  C 30 24  21 30  15 40  C 9 30  0 24  0 14  C 0 8.80000000000001  3 0  15 0  C 15.4087875543472 0  15.8071309046576 0.0102121106137929  16.1952672431881 0.0301461345102894  C 27.2009767180381 0.595570069115126  30 8.97719900373471  30 14  Z " stroke-width="2" stroke="#ffffff" fill="none" transform="matrix(1 0 0 1 1228 362 )" mask="url(#clip2056)" />
    </g>
  </defs>
  <g transform="matrix(1 0 0 1 -1224 -358 )">
    <use xlink:href="#widget2058" filter="url(#filter2057)" />
    <use xlink:href="#widget2058" />
  </g>
</svg>