<?xml version="1.0" encoding="utf-8"?>
<svg version="1.1" xmlns:xlink="http://www.w3.org/1999/xlink" width="12px" height="12px" viewBox="659 787  12 12" xmlns="http://www.w3.org/2000/svg">
  <path d="M 665 787  C 668.36 787  671 789.64  671 793  C 671 796.36  668.36 799  665 799  C 661.64 799  659 796.36  659 793  C 659 789.64  661.64 787  665 787  Z " fill-rule="nonzero" fill="#ffffff" stroke="none" />
  <path d="M 665 787.5  C 668.08 787.5  670.5 789.92  670.5 793  C 670.5 796.08  668.08 798.5  665 798.5  C 661.92 798.5  659.5 796.08  659.5 793  C 659.5 789.92  661.92 787.5  665 787.5  Z " stroke-width="1" stroke="#797979" fill="none" />
  <path d="M 665 796  C 663.32 796  662 794.68  662 793  C 662 791.32  663.32 790  665 790  C 666.68 790  668 791.32  668 793  C 668 794.68  666.68 796  665 796  " fill-rule="nonzero" fill="#797979" stroke="none" />
</svg>