<?xml version="1.0" encoding="utf-8"?>
<svg version="1.1" xmlns:xlink="http://www.w3.org/1999/xlink" width="344px" height="128px" xmlns="http://www.w3.org/2000/svg">
  <g>
    <path d="M 1 5  A 4 4 0 0 1 5 1 L 339 1  A 4 4 0 0 1 343 5 L 343 123  A 4 4 0 0 1 339 127 L 5 127  A 4 4 0 0 1 1 123 L 1 5  Z " fill-rule="nonzero" fill="#ffffff" stroke="none" fill-opacity="0.0470588235294118" />
    <path d="M 0.5 5  A 4.5 4.5 0 0 1 5 0.5 L 339 0.5  A 4.5 4.5 0 0 1 343.5 5 L 343.5 123  A 4.5 4.5 0 0 1 339 127.5 L 5 127.5  A 4.5 4.5 0 0 1 0.5 123 L 0.5 5  Z " stroke-width="1" stroke="#ffffff" fill="none" stroke-opacity="0.298039215686275" />
  </g>
</svg>