<?xml version="1.0" encoding="utf-8"?>
<svg version="1.1" xmlns:xlink="http://www.w3.org/1999/xlink" width="96px" height="32px" viewBox="651 546  96 32" xmlns="http://www.w3.org/2000/svg">
  <path d="M 652 551  A 4 4 0 0 1 656 547 L 742 547  A 4 4 0 0 1 746 551 L 746 573  A 4 4 0 0 1 742 577 L 656 577  A 4 4 0 0 1 652 573 L 652 551  Z " fill-rule="nonzero" fill="#ffffff" stroke="none" fill-opacity="0.0470588235294118" />
  <path d="M 651.5 551  A 4.5 4.5 0 0 1 656 546.5 L 742 546.5  A 4.5 4.5 0 0 1 746.5 551 L 746.5 573  A 4.5 4.5 0 0 1 742 577.5 L 656 577.5  A 4.5 4.5 0 0 1 651.5 573 L 651.5 551  Z " stroke-width="1" stroke="#ffffff" fill="none" stroke-opacity="0.298039215686275" />
</svg>