<?xml version="1.0" encoding="utf-8"?>
<svg version="1.1" xmlns:xlink="http://www.w3.org/1999/xlink" width="176px" height="32px" viewBox="996 829  176 32" xmlns="http://www.w3.org/2000/svg">
  <path d="M 997 834  A 4 4 0 0 1 1001 830 L 1167 830  A 4 4 0 0 1 1171 834 L 1171 856  A 4 4 0 0 1 1167 860 L 1001 860  A 4 4 0 0 1 997 856 L 997 834  Z " fill-rule="nonzero" fill="#ffffff" stroke="none" fill-opacity="0.0470588235294118" />
  <path d="M 996.5 834  A 4.5 4.5 0 0 1 1001 829.5 L 1167 829.5  A 4.5 4.5 0 0 1 1171.5 834 L 1171.5 856  A 4.5 4.5 0 0 1 1167 860.5 L 1001 860.5  A 4.5 4.5 0 0 1 996.5 856 L 996.5 834  Z " stroke-width="1" stroke="#ffffff" fill="none" stroke-opacity="0.298039215686275" />
</svg>