<?xml version="1.0" encoding="utf-8"?>
<svg version="1.1" xmlns:xlink="http://www.w3.org/1999/xlink" width="25px" height="21px" xmlns="http://www.w3.org/2000/svg">
  <g transform="matrix(1 0 0 1 -191 -209 )">
    <path d="M 14.4368489583333 5.373046875  C 14.5345052083333 5.455078125  14.5833333333333 5.55989583333333  14.5833333333333 5.6875  L 14.5833333333333 11.8125  C 14.5833333333333 11.9401041666667  14.5345052083333 12.044921875  14.4368489583333 12.126953125  C 14.3391927083333 12.208984375  14.2144097222222 12.25  14.0625 12.25  L 8.85416666666667 12.25  C 8.70225694444445 12.25  8.57747395833333 12.208984375  8.47981770833333 12.126953125  C 8.38216145833333 12.044921875  8.33333333333333 11.9401041666667  8.33333333333333 11.8125  L 8.33333333333333 10.9375  C 8.33333333333333 10.8098958333333  8.38216145833333 10.705078125  8.47981770833333 10.623046875  C 8.57747395833333 10.541015625  8.70225694444445 10.5  8.85416666666667 10.5  L 12.5 10.5  L 12.5 5.6875  C 12.5 5.55989583333333  12.548828125 5.455078125  12.646484375 5.373046875  C 12.744140625 5.291015625  12.8689236111111 5.25  13.0208333333333 5.25  L 14.0625 5.25  C 14.2144097222222 5.25  14.3391927083333 5.291015625  14.4368489583333 5.373046875  Z M 20.166015625 14.232421875  C 20.9581163194444 13.0930989583333  21.3541666666667 11.8489583333333  21.3541666666667 10.5  C 21.3541666666667 9.15104166666667  20.9581163194444 7.90690104166667  20.166015625 6.767578125  C 19.3739149305556 5.62825520833333  18.2996961805556 4.72591145833333  16.943359375 4.060546875  C 15.5870225694444 3.39518229166667  14.1059027777778 3.0625  12.5 3.0625  C 10.8940972222222 3.0625  9.41297743055556 3.39518229166667  8.056640625 4.060546875  C 6.70030381944444 4.72591145833333  5.62608506944444 5.62825520833333  4.833984375 6.767578125  C 4.04188368055556 7.90690104166667  3.64583333333333 9.15104166666667  3.64583333333333 10.5  C 3.64583333333333 11.8489583333333  4.04188368055556 13.0930989583333  4.833984375 14.232421875  C 5.62608506944444 15.3717447916667  6.70030381944444 16.2740885416667  8.056640625 16.939453125  C 9.41297743055556 17.6048177083333  10.8940972222222 17.9375  12.5 17.9375  C 14.1059027777778 17.9375  15.5870225694444 17.6048177083333  16.943359375 16.939453125  C 18.2996961805556 16.2740885416667  19.3739149305556 15.3717447916667  20.166015625 14.232421875  Z M 23.3235677083333 5.2294921875  C 24.4411892361111 6.83821614583333  25 8.59505208333333  25 10.5  C 25 12.4049479166667  24.4411892361111 14.1617838541667  23.3235677083333 15.7705078125  C 22.2059461805556 17.3792317708333  20.6895616319444 18.6529947916667  18.7744140625 19.591796875  C 16.8592664930556 20.5305989583333  14.7677951388889 21  12.5 21  C 10.2322048611111 21  8.14073350694444 20.5305989583333  6.2255859375 19.591796875  C 4.31043836805556 18.6529947916667  2.79405381944444 17.3792317708333  1.67643229166667 15.7705078125  C 0.558810763888889 14.1617838541667  0 12.4049479166667  0 10.5  C 0 8.59505208333333  0.558810763888889 6.83821614583333  1.67643229166667 5.2294921875  C 2.79405381944444 3.62076822916667  4.31043836805556 2.34700520833333  6.2255859375 1.408203125  C 8.14073350694444 0.469401041666665  10.2322048611111 0  12.5 0  C 14.7677951388889 0  16.8592664930556 0.469401041666665  18.7744140625 1.408203125  C 20.6895616319444 2.34700520833333  22.2059461805556 3.62076822916667  23.3235677083333 5.2294921875  Z " fill-rule="nonzero" fill="#8c8c8c" stroke="none" transform="matrix(1 0 0 1 191 209 )" />
  </g>
</svg>