<?xml version="1.0" encoding="utf-8"?>
<svg version="1.1" xmlns:xlink="http://www.w3.org/1999/xlink" width="12px" height="12px" viewBox="558 732  12 12" xmlns="http://www.w3.org/2000/svg">
  <path d="M 564 732  C 567.36 732  570 734.64  570 738  C 570 741.36  567.36 744  564 744  C 560.64 744  558 741.36  558 738  C 558 734.64  560.64 732  564 732  Z " fill-rule="nonzero" fill="#ffffff" stroke="none" />
  <path d="M 564 732.5  C 567.08 732.5  569.5 734.92  569.5 738  C 569.5 741.08  567.08 743.5  564 743.5  C 560.92 743.5  558.5 741.08  558.5 738  C 558.5 734.92  560.92 732.5  564 732.5  Z " stroke-width="1" stroke="#797979" fill="none" />
  <path d="M 564 741  C 562.32 741  561 739.68  561 738  C 561 736.32  562.32 735  564 735  C 565.68 735  567 736.32  567 738  C 567 739.68  565.68 741  564 741  " fill-rule="nonzero" fill="#797979" stroke="none" />
</svg>