<?xml version="1.0" encoding="utf-8"?>
<svg version="1.1" xmlns:xlink="http://www.w3.org/1999/xlink" width="12px" height="12px" viewBox="3297 887  12 12" xmlns="http://www.w3.org/2000/svg">
  <path d="M 3303 887  C 3306.36 887  3309 889.64  3309 893  C 3309 896.36  3306.36 899  3303 899  C 3299.64 899  3297 896.36  3297 893  C 3297 889.64  3299.64 887  3303 887  Z " fill-rule="nonzero" fill="#ffffff" stroke="none" />
  <path d="M 3303 887.5  C 3306.08 887.5  3308.5 889.92  3308.5 893  C 3308.5 896.08  3306.08 898.5  3303 898.5  C 3299.92 898.5  3297.5 896.08  3297.5 893  C 3297.5 889.92  3299.92 887.5  3303 887.5  Z " stroke-width="1" stroke="#797979" fill="none" />
  <path d="M 3303 896  C 3301.32 896  3300 894.68  3300 893  C 3300 891.32  3301.32 890  3303 890  C 3304.68 890  3306 891.32  3306 893  C 3306 894.68  3304.68 896  3303 896  " fill-rule="nonzero" fill="#797979" stroke="none" />
</svg>