<?xml version="1.0" encoding="utf-8"?>
<svg version="1.1" xmlns:xlink="http://www.w3.org/1999/xlink" width="12px" height="12px" viewBox="3421 887  12 12" xmlns="http://www.w3.org/2000/svg">
  <path d="M 3427 887  C 3430.36 887  3433 889.64  3433 893  C 3433 896.36  3430.36 899  3427 899  C 3423.64 899  3421 896.36  3421 893  C 3421 889.64  3423.64 887  3427 887  Z " fill-rule="nonzero" fill="#ffffff" stroke="none" />
  <path d="M 3427 887.5  C 3430.08 887.5  3432.5 889.92  3432.5 893  C 3432.5 896.08  3430.08 898.5  3427 898.5  C 3423.92 898.5  3421.5 896.08  3421.5 893  C 3421.5 889.92  3423.92 887.5  3427 887.5  Z " stroke-width="1" stroke="#797979" fill="none" />
  <path d="M 3427 896  C 3425.32 896  3424 894.68  3424 893  C 3424 891.32  3425.32 890  3427 890  C 3428.68 890  3430 891.32  3430 893  C 3430 894.68  3428.68 896  3427 896  " fill-rule="nonzero" fill="#797979" stroke="none" />
</svg>