<?xml version="1.0" encoding="utf-8"?>
<svg version="1.1" xmlns:xlink="http://www.w3.org/1999/xlink" width="12px" height="12px" viewBox="5042 939  12 12" xmlns="http://www.w3.org/2000/svg">
  <path d="M 5048 939  C 5051.36 939  5054 941.64  5054 945  C 5054 948.36  5051.36 951  5048 951  C 5044.64 951  5042 948.36  5042 945  C 5042 941.64  5044.64 939  5048 939  Z " fill-rule="nonzero" fill="#ffffff" stroke="none" />
  <path d="M 5048 939.5  C 5051.08 939.5  5053.5 941.92  5053.5 945  C 5053.5 948.08  5051.08 950.5  5048 950.5  C 5044.92 950.5  5042.5 948.08  5042.5 945  C 5042.5 941.92  5044.92 939.5  5048 939.5  Z " stroke-width="1" stroke="#797979" fill="none" />
  <path d="M 5048 948  C 5046.32 948  5045 946.68  5045 945  C 5045 943.32  5046.32 942  5048 942  C 5049.68 942  5051 943.32  5051 945  C 5051 946.68  5049.68 948  5048 948  " fill-rule="nonzero" fill="#797979" stroke="none" />
</svg>