<?xml version="1.0" encoding="utf-8"?>
<svg version="1.1" xmlns:xlink="http://www.w3.org/1999/xlink" width="15px" height="15px" xmlns="http://www.w3.org/2000/svg">
  <g transform="matrix(1 0 0 1 -194 -193 )">
    <path d="M 5.35866477272727 12.412109375  C 5.42258522727273 12.353515625  5.45454545454546 12.2786458333333  5.45454545454546 12.1875  L 5.45454545454546 5.3125  C 5.45454545454546 5.22135416666667  5.42258522727273 5.146484375  5.35866477272727 5.087890625  C 5.29474431818182 5.029296875  5.21306818181818 5  5.11363636363636 5  L 4.43181818181818 5  C 4.33238636363636 5  4.25071022727273 5.029296875  4.18678977272727 5.087890625  C 4.12286931818182 5.146484375  4.09090909090909 5.22135416666667  4.09090909090909 5.3125  L 4.09090909090909 12.1875  C 4.09090909090909 12.2786458333333  4.12286931818182 12.353515625  4.18678977272727 12.412109375  C 4.25071022727273 12.470703125  4.33238636363636 12.5  4.43181818181818 12.5  L 5.11363636363636 12.5  C 5.21306818181818 12.5  5.29474431818182 12.470703125  5.35866477272727 12.412109375  Z M 8.0859375 12.412109375  C 8.14985795454546 12.353515625  8.18181818181818 12.2786458333333  8.18181818181818 12.1875  L 8.18181818181818 5.3125  C 8.18181818181818 5.22135416666667  8.14985795454546 5.146484375  8.0859375 5.087890625  C 8.02201704545454 5.029296875  7.94034090909091 5  7.84090909090909 5  L 7.15909090909091 5  C 7.05965909090909 5  6.97798295454546 5.029296875  6.9140625 5.087890625  C 6.85014204545454 5.146484375  6.81818181818182 5.22135416666667  6.81818181818182 5.3125  L 6.81818181818182 12.1875  C 6.81818181818182 12.2786458333333  6.85014204545454 12.353515625  6.9140625 12.412109375  C 6.97798295454546 12.470703125  7.05965909090909 12.5  7.15909090909091 12.5  L 7.84090909090909 12.5  C 7.94034090909091 12.5  8.02201704545454 12.470703125  8.0859375 12.412109375  Z M 10.8132102272727 12.412109375  C 10.8771306818182 12.353515625  10.9090909090909 12.2786458333333  10.9090909090909 12.1875  L 10.9090909090909 5.3125  C 10.9090909090909 5.22135416666667  10.8771306818182 5.146484375  10.8132102272727 5.087890625  C 10.7492897727273 5.029296875  10.6676136363636 5  10.5681818181818 5  L 9.88636363636364 5  C 9.78693181818182 5  9.70525568181818 5.029296875  9.64133522727273 5.087890625  C 9.57741477272727 5.146484375  9.54545454545454 5.22135416666667  9.54545454545454 5.3125  L 9.54545454545454 12.1875  C 9.54545454545454 12.2786458333333  9.57741477272727 12.353515625  9.64133522727273 12.412109375  C 9.70525568181818 12.470703125  9.78693181818182 12.5  9.88636363636364 12.5  L 10.5681818181818 12.5  C 10.6676136363636 12.5  10.7492897727273 12.470703125  10.8132102272727 12.412109375  Z M 5.63565340909091 1.357421875  L 5.11363636363636 2.5  L 9.88636363636364 2.5  L 9.375 1.357421875  C 9.32528409090909 1.298828125  9.26491477272727 1.26302083333333  9.19389204545454 1.25  L 5.81676136363636 1.25  C 5.74573863636364 1.26302083333333  5.68536931818182 1.298828125  5.63565340909091 1.357421875  Z M 14.9041193181818 2.587890625  C 14.9680397727273 2.646484375  15 2.72135416666667  15 2.8125  L 15 3.4375  C 15 3.52864583333333  14.9680397727273 3.603515625  14.9041193181818 3.662109375  C 14.8401988636364 3.720703125  14.7585227272727 3.75  14.6590909090909 3.75  L 13.6363636363636 3.75  L 13.6363636363636 13.0078125  C 13.6363636363636 13.5481770833333  13.4694602272727 14.0152994791667  13.1356534090909 14.4091796875  C 12.8018465909091 14.8030598958333  12.4005681818182 15  11.9318181818182 15  L 3.06818181818182 15  C 2.59943181818182 15  2.19815340909091 14.8095703125  1.86434659090909 14.4287109375  C 1.53053977272727 14.0478515625  1.36363636363636 13.5872395833333  1.36363636363636 13.046875  L 1.36363636363636 3.75  L 0.340909090909091 3.75  C 0.241477272727273 3.75  0.159801136363636 3.720703125  0.0958806818181818 3.662109375  C 0.0319602272727273 3.603515625  0 3.52864583333333  0 3.4375  L 0 2.8125  C 0 2.72135416666667  0.0319602272727273 2.646484375  0.0958806818181818 2.587890625  C 0.159801136363636 2.529296875  0.241477272727273 2.5  0.340909090909091 2.5  L 3.6328125 2.5  L 4.37855113636364 0.869140625000001  C 4.48508522727273 0.628255208333332  4.67684659090909 0.423177083333332  4.95383522727273 0.253906250000001  C 5.23082386363636 0.0846354166666657  5.51136363636364 0  5.79545454545454 0  L 9.20454545454546 0  C 9.48863636363637 0  9.76917613636364 0.0846354166666657  10.0461647727273 0.253906250000001  C 10.3231534090909 0.423177083333332  10.5149147727273 0.628255208333332  10.6214488636364 0.869140625000001  L 11.3671875 2.5  L 14.6590909090909 2.5  C 14.7585227272727 2.5  14.8401988636364 2.529296875  14.9041193181818 2.587890625  Z " fill-rule="nonzero" fill="#000000" stroke="none" transform="matrix(1 0 0 1 194 193 )" />
  </g>
</svg>