<?xml version="1.0" encoding="utf-8"?>
<svg version="1.1" xmlns:xlink="http://www.w3.org/1999/xlink" width="15px" height="15px" xmlns="http://www.w3.org/2000/svg">
  <g transform="matrix(1 0 0 1 -171 -193 )">
    <path d="M 14.4645844952593 0  C 14.5761293920803 0  14.6765197992192 0.0306919642857156  14.765755716676 0.0920758928571436  C 14.9498047964306 0.226004464285715  15.0250976017847 0.404575892857142  14.9916341327384 0.627790178571429  L 12.8499721137758 13.4849330357143  C 12.8220858895706 13.6467633928571  12.7328499721138 13.7723214285714  12.5822643614055 13.8616071428571  C 12.5041829336308 13.90625  12.4177356385945 13.9285714285714  12.3229224762967 13.9285714285714  C 12.2615727830452 13.9285714285714  12.1946458449526 13.9146205357143  12.122141662019 13.88671875  L 8.33240379252649 12.3381696428571  L 6.30786391522588 14.8074776785714  C 6.207473508087 14.9358258928571  6.07083100948132 15  5.89793641940881 15  C 5.82543223647518 15  5.76408254322365 14.9888392857143  5.71388733965421 14.9665178571429  C 5.60791968767429 14.9274553571429  5.5228667038483 14.8618861607143  5.45872838817624 14.7698102678571  C 5.39459007250418 14.677734375  5.36252091466815 14.5758928571429  5.36252091466815 14.4642857142857  L 5.36252091466815 11.54296875  L 12.590630228667 2.67857142857143  L 3.64751812604573 10.4213169642857  L 0.343000557724484 9.06529017857143  C 0.136642498605689 8.98716517857143  0.0250976017847183 8.83370535714286  0.00836586726157278 8.60491071428572  C -0.00278862242052426 8.38169642857143  0.0864472950362521 8.21707589285714  0.276073619631902 8.11104910714286  L 14.196876742889 0.075334821428571  C 14.2805354155047 0.0251116071428564  14.3697713329615 0  14.4645844952593 0  Z " fill-rule="nonzero" fill="#000000" stroke="none" transform="matrix(1 0 0 1 171 193 )" />
  </g>
</svg>