<?xml version="1.0" encoding="utf-8"?>
<svg version="1.1" xmlns:xlink="http://www.w3.org/1999/xlink" width="16px" height="11px" xmlns="http://www.w3.org/2000/svg">
  <g transform="matrix(1 0 0 1 -351 -195 )">
    <path d="M 11.8794642857143 8.61762152777778  C 13.0729166666667 7.84418402777778  14.0654761904762 6.80497685185185  14.8571428571429 5.5  C 13.952380952381 3.99768518518519  12.8184523809524 2.87413194444444  11.4553571428571 2.12934027777778  C 11.8184523809524 2.79137731481481  12 3.50752314814815  12 4.27777777777778  C 12 5.45543981481481  11.608630952381 6.46281828703704  10.8258928571429 7.29991319444444  C 10.0431547619048 8.13700810185185  9.10119047619048 8.55555555555556  8 8.55555555555556  C 6.89880952380952 8.55555555555556  5.95684523809524 8.13700810185185  5.17410714285714 7.29991319444444  C 4.39136904761905 6.46281828703704  4 5.45543981481481  4 4.27777777777778  C 4 3.50752314814815  4.18154761904762 2.79137731481481  4.54464285714286 2.12934027777778  C 3.18154761904762 2.87413194444444  2.04761904761905 3.99768518518519  1.14285714285714 5.5  C 1.93452380952381 6.80497685185185  2.92708333333333 7.84418402777778  4.12053571428571 8.61762152777778  C 5.3139880952381 9.39105902777778  6.60714285714286 9.77777777777778  8 9.77777777777778  C 9.39285714285714 9.77777777777778  10.6860119047619 9.39105902777778  11.8794642857143 8.61762152777778  Z M 8.30357142857143 2.15798611111111  C 8.38690476190476 2.06886574074074  8.42857142857143 1.96064814814815  8.42857142857143 1.83333333333333  C 8.42857142857143 1.70601851851852  8.38690476190476 1.59780092592592  8.30357142857143 1.50868055555556  C 8.2202380952381 1.41956018518518  8.11904761904762 1.375  8 1.375  C 7.25595238095238 1.375  6.61755952380952 1.65986689814815  6.08482142857143 2.22960069444444  C 5.55208333333333 2.79933449074074  5.28571428571429 3.48206018518519  5.28571428571429 4.27777777777778  C 5.28571428571429 4.40509259259259  5.32738095238095 4.51331018518519  5.41071428571429 4.60243055555556  C 5.49404761904762 4.69155092592592  5.5952380952381 4.73611111111111  5.71428571428571 4.73611111111111  C 5.83333333333333 4.73611111111111  5.93452380952381 4.69155092592592  6.01785714285714 4.60243055555556  C 6.10119047619048 4.51331018518519  6.14285714285714 4.40509259259259  6.14285714285714 4.27777777777778  C 6.14285714285714 3.73032407407407  6.32440476190476 3.26244212962963  6.6875 2.87413194444444  C 7.05059523809524 2.48582175925926  7.48809523809524 2.29166666666667  8 2.29166666666667  C 8.11904761904762 2.29166666666667  8.2202380952381 2.24710648148148  8.30357142857143 2.15798611111111  Z M 15.8214285714286 4.84114583333333  C 15.9404761904762 5.06394675925926  16 5.28356481481481  16 5.5  C 16 5.71643518518518  15.9404761904762 5.93605324074074  15.8214285714286 6.15885416666667  C 14.9880952380952 7.62297453703704  13.8675595238095 8.79586226851852  12.4598214285714 9.67751736111111  C 11.0520833333333 10.5591724537037  9.56547619047619 11  8 11  C 6.43452380952381 11  4.94791666666667 10.5575810185185  3.54017857142857 9.67274305555556  C 2.13244047619048 8.78790509259259  1.01190476190476 7.6166087962963  0.178571428571429 6.15885416666667  C 0.0595238095238095 5.93605324074074  0 5.71643518518518  0 5.5  C 0 5.28356481481481  0.0595238095238095 5.06394675925926  0.178571428571429 4.84114583333333  C 1.01190476190476 3.3833912037037  2.13244047619048 2.21209490740741  3.54017857142857 1.32725694444444  C 4.94791666666667 0.442418981481481  6.43452380952381 0  8 0  C 9.56547619047619 0  11.0520833333333 0.442418981481481  12.4598214285714 1.32725694444444  C 13.8675595238095 2.21209490740741  14.9880952380952 3.3833912037037  15.8214285714286 4.84114583333333  Z " fill-rule="nonzero" fill="#000000" stroke="none" transform="matrix(1 0 0 1 351 195 )" />
  </g>
</svg>