<?xml version="1.0" encoding="utf-8"?>
<svg version="1.1" xmlns:xlink="http://www.w3.org/1999/xlink" width="40px" height="50px" xmlns="http://www.w3.org/2000/svg">
  <defs>
    <mask fill="white" id="clip2013">
      <path d="M 30 14  C 30 24  21 30  15 40  C 9 30  0 24  0 14  C 0 9.22958065148759  2.52480407847577 1.42939640880434  12.2068638612593 0.173180632003323  C 13.0787422529414 0.0600572454869734  14.0086600350286 0  15 0  C 27 0  30 8.79999999999995  30 14  Z " fill-rule="evenodd" />
    </mask>
    <filter x="913px" y="901px" width="40px" height="50px" filterUnits="userSpaceOnUse" id="filter2014">
      <feOffset dx="1" dy="1" in="SourceAlpha" result="shadowOffsetInner" />
      <feGaussianBlur stdDeviation="2.5" in="shadowOffsetInner" result="shadowGaussian" />
      <feComposite in2="shadowGaussian" operator="atop" in="SourceAlpha" result="shadowComposite" />
      <feColorMatrix type="matrix" values="0 0 0 0 0  0 0 0 0 0  0 0 0 0 0  0 0 0 0.698039215686274 0  " in="shadowComposite" />
    </filter>
    <g id="widget2015">
      <path d="M 30 14  C 30 24  21 30  15 40  C 9 30  0 24  0 14  C 0 9.22958065148759  2.52480407847577 1.42939640880434  12.2068638612593 0.173180632003323  C 13.0787422529414 0.0600572454869734  14.0086600350286 0  15 0  C 27 0  30 8.79999999999995  30 14  Z " fill-rule="nonzero" fill="#009dd9" stroke="none" transform="matrix(1 0 0 1 917 905 )" />
      <path d="M 30 14  C 30 24  21 30  15 40  C 9 30  0 24  0 14  C 0 9.22958065148759  2.52480407847577 1.42939640880434  12.2068638612593 0.173180632003323  C 13.0787422529414 0.0600572454869734  14.0086600350286 0  15 0  C 27 0  30 8.79999999999995  30 14  Z " stroke-width="2" stroke="#ffffff" fill="none" transform="matrix(1 0 0 1 917 905 )" mask="url(#clip2013)" />
    </g>
  </defs>
  <g transform="matrix(1 0 0 1 -913 -901 )">
    <use xlink:href="#widget2015" filter="url(#filter2014)" />
    <use xlink:href="#widget2015" />
  </g>
</svg>