<?xml version="1.0" encoding="utf-8"?>
<svg version="1.1" xmlns:xlink="http://www.w3.org/1999/xlink" width="300px" height="32px" viewBox="711 653  300 32" xmlns="http://www.w3.org/2000/svg">
  <path d="M 712 658  A 4 4 0 0 1 716 654 L 1006 654  A 4 4 0 0 1 1010 658 L 1010 680  A 4 4 0 0 1 1006 684 L 716 684  A 4 4 0 0 1 712 680 L 712 658  Z " fill-rule="nonzero" fill="#ffffff" stroke="none" fill-opacity="0.0470588235294118" />
  <path d="M 711.5 658  A 4.5 4.5 0 0 1 716 653.5 L 1006 653.5  A 4.5 4.5 0 0 1 1010.5 658 L 1010.5 680  A 4.5 4.5 0 0 1 1006 684.5 L 716 684.5  A 4.5 4.5 0 0 1 711.5 680 L 711.5 658  Z " stroke-width="1" stroke="#ffffff" fill="none" stroke-opacity="0.298039215686275" />
</svg>