<?xml version="1.0" encoding="utf-8"?>
<svg version="1.1" xmlns:xlink="http://www.w3.org/1999/xlink" width="14px" height="14px" xmlns="http://www.w3.org/2000/svg">
  <g transform="matrix(1 0 0 1 -72 -34 )">
    <path d="M 79 34  C 82.92 34  86 37.08  86 41  C 86 44.92  82.92 48  79 48  C 75.08 48  72 44.92  72 41  C 72 37.08  75.08 34  79 34  Z " fill-rule="nonzero" fill="#000000" stroke="none" fill-opacity="0.298039215686275" />
    <path d="M 79 34.5  C 82.64 34.5  85.5 37.36  85.5 41  C 85.5 44.64  82.64 47.5  79 47.5  C 75.36 47.5  72.5 44.64  72.5 41  C 72.5 37.36  75.36 34.5  79 34.5  Z " stroke-width="1" stroke="#ffffff" fill="none" />
  </g>
</svg>