<?xml version="1.0" encoding="utf-8"?>
<svg version="1.1" xmlns:xlink="http://www.w3.org/1999/xlink" width="40px" height="50px" xmlns="http://www.w3.org/2000/svg">
  <defs>
    <mask fill="white" id="clip2039">
      <path d="M 30 14  C 30 24  21 30  15 40  C 10.9887271172148 33.3145451953579  5.63659505608223 28.4169026285124  2.52930519109452 22.9166047164684  C 0.988758886686355 20.1896419966331  0 17.3145451953579  0 14  C 0 8.79999999999995  3 0  15 0  C 27 0  30 8.79999999999995  30 14  Z " fill-rule="evenodd" />
    </mask>
    <filter x="601px" y="771px" width="40px" height="50px" filterUnits="userSpaceOnUse" id="filter2040">
      <feOffset dx="1" dy="1" in="SourceAlpha" result="shadowOffsetInner" />
      <feGaussianBlur stdDeviation="2.5" in="shadowOffsetInner" result="shadowGaussian" />
      <feComposite in2="shadowGaussian" operator="atop" in="SourceAlpha" result="shadowComposite" />
      <feColorMatrix type="matrix" values="0 0 0 0 0  0 0 0 0 0  0 0 0 0 0  0 0 0 0.698039215686274 0  " in="shadowComposite" />
    </filter>
    <g id="widget2041">
      <path d="M 30 14  C 30 24  21 30  15 40  C 10.9887271172148 33.3145451953579  5.63659505608223 28.4169026285124  2.52930519109452 22.9166047164684  C 0.988758886686355 20.1896419966331  0 17.3145451953579  0 14  C 0 8.79999999999995  3 0  15 0  C 27 0  30 8.79999999999995  30 14  Z " fill-rule="nonzero" fill="#009dd9" stroke="none" transform="matrix(1 0 0 1 605 775 )" />
      <path d="M 30 14  C 30 24  21 30  15 40  C 10.9887271172148 33.3145451953579  5.63659505608223 28.4169026285124  2.52930519109452 22.9166047164684  C 0.988758886686355 20.1896419966331  0 17.3145451953579  0 14  C 0 8.79999999999995  3 0  15 0  C 27 0  30 8.79999999999995  30 14  Z " stroke-width="2" stroke="#ffffff" fill="none" transform="matrix(1 0 0 1 605 775 )" mask="url(#clip2039)" />
    </g>
  </defs>
  <g transform="matrix(1 0 0 1 -601 -771 )">
    <use xlink:href="#widget2041" filter="url(#filter2040)" />
    <use xlink:href="#widget2041" />
  </g>
</svg>