<?xml version="1.0" encoding="utf-8"?>
<svg version="1.1" xmlns:xlink="http://www.w3.org/1999/xlink" width="103px" height="32px" xmlns="http://www.w3.org/2000/svg">
  <g>
    <path d="M 1 3  A 2 2 0 0 1 3 1 L 100 1  A 2 2 0 0 1 102 3 L 102 29  A 2 2 0 0 1 100 31 L 3 31  A 2 2 0 0 1 1 29 L 1 3  Z " fill-rule="nonzero" fill="#ff4e62" stroke="none" fill-opacity="0" />
    <path d="M 0.5 3  A 2.5 2.5 0 0 1 3 0.5 L 100 0.5  A 2.5 2.5 0 0 1 102.5 3 L 102.5 29  A 2.5 2.5 0 0 1 100 31.5 L 3 31.5  A 2.5 2.5 0 0 1 0.5 29 L 0.5 3  Z " stroke-width="1" stroke="#fbfdff" fill="none" stroke-opacity="0.298039215686275" />
  </g>
</svg>