<?xml version="1.0" encoding="utf-8"?>
<svg version="1.1" xmlns:xlink="http://www.w3.org/1999/xlink" width="11px" height="8px" xmlns="http://www.w3.org/2000/svg">
  <g transform="matrix(1 0 0 1 -666 -16 )">
    <path d="M 10.7958984375 0.263888888888889  C 10.9319661458333 0.439814814814814  11 0.648148148148146  11 0.888888888888889  C 11 1.12962962962963  10.9319661458333 1.33796296296296  10.7958984375 1.51388888888889  L 5.9833984375 7.73611111111111  C 5.84733072916667 7.91203703703704  5.68619791666667 8  5.5 8  C 5.31380208333333 8  5.15266927083333 7.91203703703704  5.0166015625 7.73611111111111  L 0.2041015625 1.51388888888889  C 0.0680338541666667 1.33796296296296  0 1.12962962962963  0 0.888888888888889  C 0 0.648148148148146  0.0680338541666667 0.439814814814814  0.2041015625 0.263888888888889  C 0.340169270833333 0.0879629629629619  0.501302083333333 0  0.6875 0  L 10.3125 0  C 10.4986979166667 0  10.6598307291667 0.0879629629629619  10.7958984375 0.263888888888889  Z " fill-rule="nonzero" fill="#ffffff" stroke="none" transform="matrix(1 0 0 1 666 16 )" />
  </g>
</svg>