<?xml version="1.0" encoding="utf-8"?>
<svg version="1.1" xmlns:xlink="http://www.w3.org/1999/xlink" width="8px" height="6px" xmlns="http://www.w3.org/2000/svg">
  <g transform="matrix(1 0 0 1 -237 -62 )">
    <path d="M 7.85548387096774 0.828282828282829  C 7.95182795698925 0.922558922558922  8 1.03703703703704  8 1.17171717171717  C 8 1.30639730639731  7.95182795698925 1.42087542087542  7.85548387096774 1.51515151515151  L 4.11870967741936 5.17171717171717  L 3.41677419354839 5.85858585858586  C 3.32043010752688 5.95286195286195  3.20344086021505 6  3.0658064516129 6  C 2.92817204301075 6  2.81118279569893 5.95286195286195  2.71483870967742 5.85858585858586  L 2.01290322580645 5.17171717171717  L 0.144516129032258 3.34343434343434  C 0.0481720430107527 3.24915824915825  0 3.13468013468013  0 3  C 0 2.86531986531987  0.0481720430107527 2.75084175084175  0.144516129032258 2.65656565656566  L 0.846451612903226 1.96969696969697  C 0.942795698924731 1.87542087542088  1.05978494623656 1.82828282828283  1.19741935483871 1.82828282828283  C 1.33505376344086 1.82828282828283  1.45204301075269 1.87542087542088  1.54838709677419 1.96969696969697  L 3.0658064516129 3.45959595959596  L 6.45161290322581 0.141414141414141  C 6.54795698924731 0.0471380471380469  6.66494623655914 0  6.80258064516129 0  C 6.94021505376344 0  7.05720430107527 0.0471380471380469  7.15354838709677 0.141414141414141  L 7.85548387096774 0.828282828282829  Z " fill-rule="nonzero" fill="#ffffff" stroke="none" transform="matrix(1 0 0 1 237 62 )" />
  </g>
</svg>