<?xml version="1.0" encoding="utf-8"?>
<svg version="1.1" xmlns:xlink="http://www.w3.org/1999/xlink" width="120px" height="32px" viewBox="690 632  120 32" xmlns="http://www.w3.org/2000/svg">
  <path d="M 691 637  A 4 4 0 0 1 695 633 L 805 633  A 4 4 0 0 1 809 637 L 809 659  A 4 4 0 0 1 805 663 L 695 663  A 4 4 0 0 1 691 659 L 691 637  Z " fill-rule="nonzero" fill="#f0f0f0" stroke="none" />
  <path d="M 690.5 637  A 4.5 4.5 0 0 1 695 632.5 L 805 632.5  A 4.5 4.5 0 0 1 809.5 637 L 809.5 659  A 4.5 4.5 0 0 1 805 663.5 L 695 663.5  A 4.5 4.5 0 0 1 690.5 659 L 690.5 637  Z " stroke-width="1" stroke="#ffffff" fill="none" stroke-opacity="0.298039215686275" />
</svg>