<?xml version="1.0" encoding="utf-8"?>
<svg version="1.1" xmlns:xlink="http://www.w3.org/1999/xlink" width="300px" height="32px" viewBox="1761 653  300 32" xmlns="http://www.w3.org/2000/svg">
  <path d="M 1763 658  A 3 3 0 0 1 1766 655 L 2056 655  A 3 3 0 0 1 2059 658 L 2059 680  A 3 3 0 0 1 2056 683 L 1766 683  A 3 3 0 0 1 1763 680 L 1763 658  Z " fill-rule="nonzero" fill="#f0f0f0" stroke="none" />
  <path d="M 1762 658  A 4 4 0 0 1 1766 654 L 2056 654  A 4 4 0 0 1 2060 658 L 2060 680  A 4 4 0 0 1 2056 684 L 1766 684  A 4 4 0 0 1 1762 680 L 1762 658  Z " stroke-width="2" stroke="#ee1616" fill="none" stroke-opacity="0.498039215686275" />
</svg>