<?xml version="1.0" encoding="utf-8"?>
<svg version="1.1" xmlns:xlink="http://www.w3.org/1999/xlink" width="148px" height="32px" xmlns="http://www.w3.org/2000/svg">
  <g transform="matrix(1 0 0 1 -629 -406 )">
    <path d="M 630 409  A 2 2 0 0 1 632 407 L 774 407  A 2 2 0 0 1 776 409 L 776 435  A 2 2 0 0 1 774 437 L 632 437  A 2 2 0 0 1 630 435 L 630 409  Z " fill-rule="nonzero" fill="#ff4e62" stroke="none" fill-opacity="0" />
    <path d="M 629.5 409  A 2.5 2.5 0 0 1 632 406.5 L 774 406.5  A 2.5 2.5 0 0 1 776.5 409 L 776.5 435  A 2.5 2.5 0 0 1 774 437.5 L 632 437.5  A 2.5 2.5 0 0 1 629.5 435 L 629.5 409  Z " stroke-width="1" stroke-dasharray="9,4" stroke="#fbfdff" fill="none" stroke-dashoffset="0.5" />
  </g>
</svg>