<?xml version="1.0" encoding="utf-8"?>
<svg version="1.1" xmlns:xlink="http://www.w3.org/1999/xlink" width="9px" height="12px" xmlns="http://www.w3.org/2000/svg">
  <g transform="matrix(1 0 0 1 -978 -1031 )">
    <path d="M 0.692307692307692 9.21428571428571  L 0.692307692307692 11.1428571428571  L 2.25 11.1428571428571  L 2.25 9.21428571428571  L 0.692307692307692 9.21428571428571  Z M 2.59615384615385 9.21428571428571  L 2.59615384615385 11.1428571428571  L 4.32692307692308 11.1428571428571  L 4.32692307692308 9.21428571428571  L 2.59615384615385 9.21428571428571  Z M 0.692307692307692 6.64285714285714  L 0.692307692307692 8.78571428571429  L 2.25 8.78571428571429  L 2.25 6.64285714285714  L 0.692307692307692 6.64285714285714  Z M 2.59615384615385 6.64285714285714  L 2.59615384615385 8.78571428571429  L 4.32692307692308 8.78571428571429  L 4.32692307692308 6.64285714285714  L 2.59615384615385 6.64285714285714  Z M 0.692307692307692 4.28571428571428  L 0.692307692307692 6.21428571428571  L 2.25 6.21428571428571  L 2.25 4.28571428571428  L 0.692307692307692 4.28571428571428  Z M 4.67307692307692 9.21428571428571  L 4.67307692307692 11.1428571428571  L 6.40384615384615 11.1428571428571  L 6.40384615384615 9.21428571428571  L 4.67307692307692 9.21428571428571  Z M 2.59615384615385 4.28571428571428  L 2.59615384615385 6.21428571428571  L 4.32692307692308 6.21428571428571  L 4.32692307692308 4.28571428571428  L 2.59615384615385 4.28571428571428  Z M 6.75 9.21428571428571  L 6.75 11.1428571428571  L 8.30769230769231 11.1428571428571  L 8.30769230769231 9.21428571428571  L 6.75 9.21428571428571  Z M 4.67307692307692 6.64285714285714  L 4.67307692307692 8.78571428571429  L 6.40384615384615 8.78571428571429  L 6.40384615384615 6.64285714285714  L 4.67307692307692 6.64285714285714  Z M 2.71784855769231 3.15066964285714  C 2.75210336538462 3.10825892857143  2.76923076923077 3.05803571428571  2.76923076923077 3  L 2.76923076923077 1.07142857142857  C 2.76923076923077 1.01339285714286  2.75210336538462 0.963169642857142  2.71784855769231 0.920758928571428  C 2.68359375 0.878348214285713  2.64302884615385 0.857142857142857  2.59615384615385 0.857142857142857  L 2.25 0.857142857142857  C 2.203125 0.857142857142857  2.16256009615385 0.878348214285713  2.12830528846154 0.920758928571428  C 2.09405048076923 0.963169642857142  2.07692307692308 1.01339285714286  2.07692307692308 1.07142857142857  L 2.07692307692308 3  C 2.07692307692308 3.05803571428571  2.09405048076923 3.10825892857143  2.12830528846154 3.15066964285714  C 2.16256009615385 3.19308035714286  2.203125 3.21428571428571  2.25 3.21428571428571  L 2.59615384615385 3.21428571428571  C 2.64302884615385 3.21428571428571  2.68359375 3.19308035714286  2.71784855769231 3.15066964285714  Z M 6.75 6.64285714285714  L 6.75 8.78571428571429  L 8.30769230769231 8.78571428571429  L 8.30769230769231 6.64285714285714  L 6.75 6.64285714285714  Z M 4.67307692307692 4.28571428571428  L 4.67307692307692 6.21428571428571  L 6.40384615384615 6.21428571428571  L 6.40384615384615 4.28571428571428  L 4.67307692307692 4.28571428571428  Z M 6.75 4.28571428571428  L 6.75 6.21428571428571  L 8.30769230769231 6.21428571428571  L 8.30769230769231 4.28571428571428  L 6.75 4.28571428571428  Z M 6.87169471153846 3.15066964285714  C 6.90594951923077 3.10825892857143  6.92307692307692 3.05803571428571  6.92307692307692 3  L 6.92307692307692 1.07142857142857  C 6.92307692307692 1.01339285714286  6.90594951923077 0.963169642857142  6.87169471153846 0.920758928571428  C 6.83743990384615 0.878348214285713  6.796875 0.857142857142857  6.75 0.857142857142857  L 6.40384615384615 0.857142857142857  C 6.35697115384616 0.857142857142857  6.31640625 0.878348214285713  6.28215144230769 0.920758928571428  C 6.24789663461539 0.963169642857142  6.23076923076923 1.01339285714286  6.23076923076923 1.07142857142857  L 6.23076923076923 3  C 6.23076923076923 3.05803571428571  6.24789663461539 3.10825892857143  6.28215144230769 3.15066964285714  C 6.31640625 3.19308035714286  6.35697115384616 3.21428571428571  6.40384615384615 3.21428571428571  L 6.75 3.21428571428571  C 6.796875 3.21428571428571  6.83743990384615 3.19308035714286  6.87169471153846 3.15066964285714  Z M 8.79447115384615 1.96875  C 8.93149038461539 2.13839285714286  9 2.33928571428571  9 2.57142857142857  L 9 11.1428571428571  C 9 11.375  8.93149038461539 11.5758928571429  8.79447115384615 11.7455357142857  C 8.65745192307692 11.9151785714286  8.49519230769231 12  8.30769230769231 12  L 0.692307692307692 12  C 0.504807692307692 12  0.342548076923077 11.9151785714286  0.205528846153846 11.7455357142857  C 0.0685096153846154 11.5758928571429  0 11.375  0 11.1428571428571  L 0 2.57142857142857  C 0 2.33928571428571  0.0685096153846154 2.13839285714286  0.205528846153846 1.96875  C 0.342548076923077 1.79910714285714  0.504807692307692 1.71428571428571  0.692307692307692 1.71428571428571  L 1.38461538461538 1.71428571428571  L 1.38461538461538 1.07142857142857  C 1.38461538461538 0.776785714285715  1.46935096153846 0.524553571428571  1.63882211538462 0.314732142857143  C 1.80829326923077 0.104910714285714  2.01201923076923 0  2.25 0  L 2.59615384615385 0  C 2.83413461538462 0  3.03786057692308 0.104910714285714  3.20733173076923 0.314732142857143  C 3.37680288461539 0.524553571428571  3.46153846153846 0.776785714285715  3.46153846153846 1.07142857142857  L 3.46153846153846 1.71428571428571  L 5.53846153846154 1.71428571428571  L 5.53846153846154 1.07142857142857  C 5.53846153846154 0.776785714285715  5.62319711538462 0.524553571428571  5.79266826923077 0.314732142857143  C 5.96213942307692 0.104910714285714  6.16586538461539 0  6.40384615384615 0  L 6.75 0  C 6.98798076923077 0  7.19170673076923 0.104910714285714  7.36117788461539 0.314732142857143  C 7.53064903846154 0.524553571428571  7.61538461538461 0.776785714285715  7.61538461538461 1.07142857142857  L 7.61538461538461 1.71428571428571  L 8.30769230769231 1.71428571428571  C 8.49519230769231 1.71428571428571  8.65745192307692 1.79910714285714  8.79447115384615 1.96875  Z " fill-rule="nonzero" fill="#8c8c8c" stroke="none" transform="matrix(1 0 0 1 978 1031 )" />
  </g>
</svg>