<?xml version="1.0" encoding="utf-8"?>
<svg version="1.1" xmlns:xlink="http://www.w3.org/1999/xlink" width="18px" height="16px" xmlns="http://www.w3.org/2000/svg">
  <g transform="matrix(1 0 0 1 -1120 -1028 )">
    <path d="M 10.39453125 4.09375  C 10.46484375 4.15625  10.5 4.23611111111111  10.5 4.33333333333333  L 10.5 9  C 10.5 9.09722222222222  10.46484375 9.17708333333333  10.39453125 9.23958333333333  C 10.32421875 9.30208333333333  10.234375 9.33333333333333  10.125 9.33333333333333  L 6.375 9.33333333333333  C 6.265625 9.33333333333333  6.17578125 9.30208333333333  6.10546875 9.23958333333333  C 6.03515625 9.17708333333333  6 9.09722222222222  6 9  L 6 8.33333333333333  C 6 8.23611111111111  6.03515625 8.15625  6.10546875 8.09375  C 6.17578125 8.03125  6.265625 8  6.375 8  L 9 8  L 9 4.33333333333333  C 9 4.23611111111111  9.03515625 4.15625  9.10546875 4.09375  C 9.17578125 4.03125  9.265625 4  9.375 4  L 10.125 4  C 10.234375 4  10.32421875 4.03125  10.39453125 4.09375  Z M 14.51953125 10.84375  C 15.08984375 9.97569444444444  15.375 9.02777777777778  15.375 8  C 15.375 6.97222222222222  15.08984375 6.02430555555556  14.51953125 5.15625  C 13.94921875 4.28819444444444  13.17578125 3.60069444444444  12.19921875 3.09375  C 11.22265625 2.58680555555556  10.15625 2.33333333333333  9 2.33333333333333  C 7.84375 2.33333333333333  6.77734375 2.58680555555556  5.80078125 3.09375  C 4.82421875 3.60069444444444  4.05078125 4.28819444444444  3.48046875 5.15625  C 2.91015625 6.02430555555556  2.625 6.97222222222222  2.625 8  C 2.625 9.02777777777778  2.91015625 9.97569444444444  3.48046875 10.84375  C 4.05078125 11.7118055555556  4.82421875 12.3993055555556  5.80078125 12.90625  C 6.77734375 13.4131944444444  7.84375 13.6666666666667  9 13.6666666666667  C 10.15625 13.6666666666667  11.22265625 13.4131944444444  12.19921875 12.90625  C 13.17578125 12.3993055555556  13.94921875 11.7118055555556  14.51953125 10.84375  Z M 16.79296875 3.984375  C 17.59765625 5.21006944444444  18 6.54861111111111  18 8  C 18 9.45138888888889  17.59765625 10.7899305555556  16.79296875 12.015625  C 15.98828125 13.2413194444444  14.896484375 14.2118055555556  13.517578125 14.9270833333333  C 12.138671875 15.6423611111111  10.6328125 16  9 16  C 7.3671875 16  5.861328125 15.6423611111111  4.482421875 14.9270833333333  C 3.103515625 14.2118055555556  2.01171875 13.2413194444444  1.20703125 12.015625  C 0.40234375 10.7899305555556  0 9.45138888888889  0 8  C 0 6.54861111111111  0.40234375 5.21006944444444  1.20703125 3.984375  C 2.01171875 2.75868055555556  3.103515625 1.78819444444444  4.482421875 1.07291666666667  C 5.861328125 0.357638888888888  7.3671875 0  9 0  C 10.6328125 0  12.138671875 0.357638888888888  13.517578125 1.07291666666667  C 14.896484375 1.78819444444444  15.98828125 2.75868055555556  16.79296875 3.984375  Z " fill-rule="nonzero" fill="#8c8c8c" stroke="none" transform="matrix(1 0 0 1 1120 1028 )" />
  </g>
</svg>