<?xml version="1.0" encoding="utf-8"?>
<svg version="1.1" xmlns:xlink="http://www.w3.org/1999/xlink" width="12px" height="12px" viewBox="692 563  12 12" xmlns="http://www.w3.org/2000/svg">
  <path d="M 698 563  C 701.36 563  704 565.64  704 569  C 704 572.36  701.36 575  698 575  C 694.64 575  692 572.36  692 569  C 692 565.64  694.64 563  698 563  Z " fill-rule="nonzero" fill="#ffffff" stroke="none" fill-opacity="0.0470588235294118" />
  <path d="M 698 563.5  C 701.08 563.5  703.5 565.92  703.5 569  C 703.5 572.08  701.08 574.5  698 574.5  C 694.92 574.5  692.5 572.08  692.5 569  C 692.5 565.92  694.92 563.5  698 563.5  Z " stroke-width="1" stroke="#797979" fill="none" />
  <path d="M 698 572  C 696.32 572  695 570.68  695 569  C 695 567.32  696.32 566  698 566  C 699.68 566  701 567.32  701 569  C 701 570.68  699.68 572  698 572  " fill-rule="nonzero" fill="#797979" stroke="none" />
</svg>