<?xml version="1.0" encoding="utf-8"?>
<svg version="1.1" xmlns:xlink="http://www.w3.org/1999/xlink" width="12px" height="12px" viewBox="692 665  12 12" xmlns="http://www.w3.org/2000/svg">
  <path d="M 698 665  C 701.36 665  704 667.64  704 671  C 704 674.36  701.36 677  698 677  C 694.64 677  692 674.36  692 671  C 692 667.64  694.64 665  698 665  Z " fill-rule="nonzero" fill="#ffffff" stroke="none" fill-opacity="0.0549019607843137" />
  <path d="M 698 665.5  C 701.08 665.5  703.5 667.92  703.5 671  C 703.5 674.08  701.08 676.5  698 676.5  C 694.92 676.5  692.5 674.08  692.5 671  C 692.5 667.92  694.92 665.5  698 665.5  Z " stroke-width="1" stroke="#797979" fill="none" />
  <path d="M 698 674  C 696.32 674  695 672.68  695 671  C 695 669.32  696.32 668  698 668  C 699.68 668  701 669.32  701 671  C 701 672.68  699.68 674  698 674  " fill-rule="nonzero" fill="#797979" stroke="none" />
</svg>