<?xml version="1.0" encoding="utf-8"?>
<svg version="1.1" xmlns:xlink="http://www.w3.org/1999/xlink" width="12px" height="12px" viewBox="692 805  12 12" xmlns="http://www.w3.org/2000/svg">
  <path d="M 698 805  C 701.36 805  704 807.64  704 811  C 704 814.36  701.36 817  698 817  C 694.64 817  692 814.36  692 811  C 692 807.64  694.64 805  698 805  Z " fill-rule="nonzero" fill="#ffffff" stroke="none" fill-opacity="0.0549019607843137" />
  <path d="M 698 805.5  C 701.08 805.5  703.5 807.92  703.5 811  C 703.5 814.08  701.08 816.5  698 816.5  C 694.92 816.5  692.5 814.08  692.5 811  C 692.5 807.92  694.92 805.5  698 805.5  Z " stroke-width="1" stroke="#797979" fill="none" />
  <path d="M 698 814  C 696.32 814  695 812.68  695 811  C 695 809.32  696.32 808  698 808  C 699.68 808  701 809.32  701 811  C 701 812.68  699.68 814  698 814  " fill-rule="nonzero" fill="#797979" stroke="none" />
</svg>