<?xml version="1.0" encoding="utf-8"?>
<svg version="1.1" xmlns:xlink="http://www.w3.org/1999/xlink" width="12px" height="12px" viewBox="692 1024  12 12" xmlns="http://www.w3.org/2000/svg">
  <path d="M 698 1024  C 701.36 1024  704 1026.64  704 1030  C 704 1033.36  701.36 1036  698 1036  C 694.64 1036  692 1033.36  692 1030  C 692 1026.64  694.64 1024  698 1024  Z " fill-rule="nonzero" fill="#ffffff" stroke="none" />
  <path d="M 698 1024.5  C 701.08 1024.5  703.5 1026.92  703.5 1030  C 703.5 1033.08  701.08 1035.5  698 1035.5  C 694.92 1035.5  692.5 1033.08  692.5 1030  C 692.5 1026.92  694.92 1024.5  698 1024.5  Z " stroke-width="1" stroke="#797979" fill="none" />
  <path d="M 698 1033  C 696.32 1033  695 1031.68  695 1030  C 695 1028.32  696.32 1027  698 1027  C 699.68 1027  701 1028.32  701 1030  C 701 1031.68  699.68 1033  698 1033  " fill-rule="nonzero" fill="#797979" stroke="none" />
</svg>