<?xml version="1.0" encoding="utf-8"?>
<svg version="1.1" xmlns:xlink="http://www.w3.org/1999/xlink" width="12px" height="12px" viewBox="692 842  12 12" xmlns="http://www.w3.org/2000/svg">
  <path d="M 698 842  C 701.36 842  704 844.64  704 848  C 704 851.36  701.36 854  698 854  C 694.64 854  692 851.36  692 848  C 692 844.64  694.64 842  698 842  Z " fill-rule="nonzero" fill="#ffffff" stroke="none" fill-opacity="0.0549019607843137" />
  <path d="M 698 842.5  C 701.08 842.5  703.5 844.92  703.5 848  C 703.5 851.08  701.08 853.5  698 853.5  C 694.92 853.5  692.5 851.08  692.5 848  C 692.5 844.92  694.92 842.5  698 842.5  Z " stroke-width="1" stroke="#797979" fill="none" />
  <path d="M 698 851  C 696.32 851  695 849.68  695 848  C 695 846.32  696.32 845  698 845  C 699.68 845  701 846.32  701 848  C 701 849.68  699.68 851  698 851  " fill-rule="nonzero" fill="#797979" stroke="none" />
</svg>