<?xml version="1.0" encoding="utf-8"?>
<svg version="1.1" xmlns:xlink="http://www.w3.org/1999/xlink" width="12px" height="12px" viewBox="692 944  12 12" xmlns="http://www.w3.org/2000/svg">
  <path d="M 698 944  C 701.36 944  704 946.64  704 950  C 704 953.36  701.36 956  698 956  C 694.64 956  692 953.36  692 950  C 692 946.64  694.64 944  698 944  Z " fill-rule="nonzero" fill="#ffffff" stroke="none" />
  <path d="M 698 944.5  C 701.08 944.5  703.5 946.92  703.5 950  C 703.5 953.08  701.08 955.5  698 955.5  C 694.92 955.5  692.5 953.08  692.5 950  C 692.5 946.92  694.92 944.5  698 944.5  Z " stroke-width="1" stroke="#797979" fill="none" />
  <path d="M 698 953  C 696.32 953  695 951.68  695 950  C 695 948.32  696.32 947  698 947  C 699.68 947  701 948.32  701 950  C 701 951.68  699.68 953  698 953  " fill-rule="nonzero" fill="#797979" stroke="none" />
</svg>