<?xml version="1.0" encoding="utf-8"?>
<svg version="1.1" xmlns:xlink="http://www.w3.org/1999/xlink" width="12px" height="12px" viewBox="1816 843  12 12" xmlns="http://www.w3.org/2000/svg">
  <path d="M 1822 843  C 1825.36 843  1828 845.64  1828 849  C 1828 852.36  1825.36 855  1822 855  C 1818.64 855  1816 852.36  1816 849  C 1816 845.64  1818.64 843  1822 843  Z " fill-rule="nonzero" fill="#ffffff" stroke="none" fill-opacity="0.0549019607843137" />
  <path d="M 1822 843.5  C 1825.08 843.5  1827.5 845.92  1827.5 849  C 1827.5 852.08  1825.08 854.5  1822 854.5  C 1818.92 854.5  1816.5 852.08  1816.5 849  C 1816.5 845.92  1818.92 843.5  1822 843.5  Z " stroke-width="1" stroke="#797979" fill="none" />
  <path d="M 1822 852  C 1820.32 852  1819 850.68  1819 849  C 1819 847.32  1820.32 846  1822 846  C 1823.68 846  1825 847.32  1825 849  C 1825 850.68  1823.68 852  1822 852  " fill-rule="nonzero" fill="#797979" stroke="none" />
</svg>