<?xml version="1.0" encoding="utf-8"?>
<svg version="1.1" xmlns:xlink="http://www.w3.org/1999/xlink" width="12px" height="12px" viewBox="1816 740  12 12" xmlns="http://www.w3.org/2000/svg">
  <path d="M 1822 740  C 1825.36 740  1828 742.64  1828 746  C 1828 749.36  1825.36 752  1822 752  C 1818.64 752  1816 749.36  1816 746  C 1816 742.64  1818.64 740  1822 740  Z " fill-rule="nonzero" fill="#ffffff" stroke="none" fill-opacity="0.0549019607843137" />
  <path d="M 1822 740.5  C 1825.08 740.5  1827.5 742.92  1827.5 746  C 1827.5 749.08  1825.08 751.5  1822 751.5  C 1818.92 751.5  1816.5 749.08  1816.5 746  C 1816.5 742.92  1818.92 740.5  1822 740.5  Z " stroke-width="1" stroke="#797979" fill="none" />
  <path d="M 1822 749  C 1820.32 749  1819 747.68  1819 746  C 1819 744.32  1820.32 743  1822 743  C 1823.68 743  1825 744.32  1825 746  C 1825 747.68  1823.68 749  1822 749  " fill-rule="nonzero" fill="#797979" stroke="none" />
</svg>