<?xml version="1.0" encoding="utf-8"?>
<svg version="1.1" xmlns:xlink="http://www.w3.org/1999/xlink" width="12px" height="12px" viewBox="1816 1062  12 12" xmlns="http://www.w3.org/2000/svg">
  <path d="M 1822 1062  C 1825.36 1062  1828 1064.64  1828 1068  C 1828 1071.36  1825.36 1074  1822 1074  C 1818.64 1074  1816 1071.36  1816 1068  C 1816 1064.64  1818.64 1062  1822 1062  Z " fill-rule="nonzero" fill="#ffffff" stroke="none" />
  <path d="M 1822 1062.5  C 1825.08 1062.5  1827.5 1064.92  1827.5 1068  C 1827.5 1071.08  1825.08 1073.5  1822 1073.5  C 1818.92 1073.5  1816.5 1071.08  1816.5 1068  C 1816.5 1064.92  1818.92 1062.5  1822 1062.5  Z " stroke-width="1" stroke="#797979" fill="none" />
  <path d="M 1822 1071  C 1820.32 1071  1819 1069.68  1819 1068  C 1819 1066.32  1820.32 1065  1822 1065  C 1823.68 1065  1825 1066.32  1825 1068  C 1825 1069.68  1823.68 1071  1822 1071  " fill-rule="nonzero" fill="#797979" stroke="none" />
</svg>