<?xml version="1.0" encoding="utf-8"?>
<svg version="1.1" xmlns:xlink="http://www.w3.org/1999/xlink" width="12px" height="12px" viewBox="1816 880  12 12" xmlns="http://www.w3.org/2000/svg">
  <path d="M 1822 880  C 1825.36 880  1828 882.64  1828 886  C 1828 889.36  1825.36 892  1822 892  C 1818.64 892  1816 889.36  1816 886  C 1816 882.64  1818.64 880  1822 880  Z " fill-rule="nonzero" fill="#ffffff" stroke="none" fill-opacity="0.0549019607843137" />
  <path d="M 1822 880.5  C 1825.08 880.5  1827.5 882.92  1827.5 886  C 1827.5 889.08  1825.08 891.5  1822 891.5  C 1818.92 891.5  1816.5 889.08  1816.5 886  C 1816.5 882.92  1818.92 880.5  1822 880.5  Z " stroke-width="1" stroke="#797979" fill="none" />
  <path d="M 1822 889  C 1820.32 889  1819 887.68  1819 886  C 1819 884.32  1820.32 883  1822 883  C 1823.68 883  1825 884.32  1825 886  C 1825 887.68  1823.68 889  1822 889  " fill-rule="nonzero" fill="#797979" stroke="none" />
</svg>