<?xml version="1.0" encoding="utf-8"?>
<svg version="1.1" xmlns:xlink="http://www.w3.org/1999/xlink" width="12px" height="12px" viewBox="1816 564  12 12" xmlns="http://www.w3.org/2000/svg">
  <path d="M 1822 564  C 1825.36 564  1828 566.64  1828 570  C 1828 573.36  1825.36 576  1822 576  C 1818.64 576  1816 573.36  1816 570  C 1816 566.64  1818.64 564  1822 564  Z " fill-rule="nonzero" fill="#ffffff" stroke="none" fill-opacity="0.0470588235294118" />
  <path d="M 1822 564.5  C 1825.08 564.5  1827.5 566.92  1827.5 570  C 1827.5 573.08  1825.08 575.5  1822 575.5  C 1818.92 575.5  1816.5 573.08  1816.5 570  C 1816.5 566.92  1818.92 564.5  1822 564.5  Z " stroke-width="1" stroke="#797979" fill="none" />
  <path d="M 1822 573  C 1820.32 573  1819 571.68  1819 570  C 1819 568.32  1820.32 567  1822 567  C 1823.68 567  1825 568.32  1825 570  C 1825 571.68  1823.68 573  1822 573  " fill-rule="nonzero" fill="#797979" stroke="none" />
</svg>