<?xml version="1.0" encoding="utf-8"?>
<svg version="1.1" xmlns:xlink="http://www.w3.org/1999/xlink" width="12px" height="12px" viewBox="1816 601  12 12" xmlns="http://www.w3.org/2000/svg">
  <path d="M 1822 601  C 1825.36 601  1828 603.64  1828 607  C 1828 610.36  1825.36 613  1822 613  C 1818.64 613  1816 610.36  1816 607  C 1816 603.64  1818.64 601  1822 601  Z " fill-rule="nonzero" fill="#ffffff" stroke="none" fill-opacity="0.0470588235294118" />
  <path d="M 1822 601.5  C 1825.08 601.5  1827.5 603.92  1827.5 607  C 1827.5 610.08  1825.08 612.5  1822 612.5  C 1818.92 612.5  1816.5 610.08  1816.5 607  C 1816.5 603.92  1818.92 601.5  1822 601.5  Z " stroke-width="1" stroke="#797979" fill="none" />
  <path d="M 1822 610  C 1820.32 610  1819 608.68  1819 607  C 1819 605.32  1820.32 604  1822 604  C 1823.68 604  1825 605.32  1825 607  C 1825 608.68  1823.68 610  1822 610  " fill-rule="nonzero" fill="#797979" stroke="none" />
</svg>