<?xml version="1.0" encoding="utf-8"?>
<svg version="1.1" xmlns:xlink="http://www.w3.org/1999/xlink" width="28px" height="28px" xmlns="http://www.w3.org/2000/svg">
  <g transform="matrix(1 0 0 1 -2347 -315 )">
    <path d="M 18.5026041666667 23.1692708333333  C 18.6119791666667 23.0598958333333  18.6666666666667 22.9201388888889  18.6666666666667 22.75  L 18.6666666666667 19.8333333333333  C 18.6666666666667 19.6631944444444  18.6119791666667 19.5234375  18.5026041666667 19.4140625  C 18.3932291666667 19.3046875  18.2534722222222 19.25  18.0833333333333 19.25  L 16.3333333333333 19.25  L 16.3333333333333 9.91666666666667  C 16.3333333333333 9.74652777777778  16.2786458333333 9.60677083333333  16.1692708333333 9.49739583333333  C 16.0598958333333 9.38802083333333  15.9201388888889 9.33333333333333  15.75 9.33333333333333  L 9.91666666666667 9.33333333333333  C 9.74652777777778 9.33333333333333  9.60677083333333 9.38802083333333  9.49739583333333 9.49739583333333  C 9.38802083333333 9.60677083333333  9.33333333333333 9.74652777777778  9.33333333333333 9.91666666666667  L 9.33333333333333 12.8333333333333  C 9.33333333333333 13.0034722222222  9.38802083333333 13.1432291666667  9.49739583333333 13.2526041666667  C 9.60677083333333 13.3619791666667  9.74652777777778 13.4166666666667  9.91666666666667 13.4166666666667  L 11.6666666666667 13.4166666666667  L 11.6666666666667 19.25  L 9.91666666666667 19.25  C 9.74652777777778 19.25  9.60677083333333 19.3046875  9.49739583333333 19.4140625  C 9.38802083333333 19.5234375  9.33333333333333 19.6631944444444  9.33333333333333 19.8333333333333  L 9.33333333333333 22.75  C 9.33333333333333 22.9201388888889  9.38802083333333 23.0598958333333  9.49739583333333 23.1692708333333  C 9.60677083333333 23.2786458333333  9.74652777777778 23.3333333333333  9.91666666666667 23.3333333333333  L 18.0833333333333 23.3333333333333  C 18.2534722222222 23.3333333333333  18.3932291666667 23.2786458333333  18.5026041666667 23.1692708333333  Z M 16.1692708333333 6.8359375  C 16.2786458333333 6.7265625  16.3333333333333 6.58680555555555  16.3333333333333 6.41666666666667  L 16.3333333333333 3.5  C 16.3333333333333 3.32986111111111  16.2786458333333 3.19010416666667  16.1692708333333 3.08072916666667  C 16.0598958333333 2.97135416666667  15.9201388888889 2.91666666666667  15.75 2.91666666666667  L 12.25 2.91666666666667  C 12.0798611111111 2.91666666666667  11.9401041666667 2.97135416666667  11.8307291666667 3.08072916666667  C 11.7213541666667 3.19010416666667  11.6666666666667 3.32986111111111  11.6666666666667 3.5  L 11.6666666666667 6.41666666666667  C 11.6666666666667 6.58680555555555  11.7213541666667 6.7265625  11.8307291666667 6.8359375  C 11.9401041666667 6.9453125  12.0798611111111 7  12.25 7  L 15.75 7  C 15.9201388888889 7  16.0598958333333 6.9453125  16.1692708333333 6.8359375  Z M 26.1223958333333 6.97265625  C 27.3741319444444 9.11762152777778  28 11.4600694444444  28 14  C 28 16.5399305555556  27.3741319444444 18.8823784722222  26.1223958333333 21.02734375  C 24.8706597222222 23.1723090277778  23.1723090277778 24.8706597222222  21.02734375 26.1223958333333  C 18.8823784722222 27.3741319444444  16.5399305555556 28  14 28  C 11.4600694444444 28  9.11762152777778 27.3741319444444  6.97265625 26.1223958333333  C 4.82769097222222 24.8706597222222  3.12934027777778 23.1723090277778  1.87760416666667 21.02734375  C 0.625868055555555 18.8823784722222  0 16.5399305555556  0 14  C 0 11.4600694444444  0.625868055555555 9.11762152777778  1.87760416666667 6.97265625  C 3.12934027777778 4.82769097222222  4.82769097222222 3.12934027777778  6.97265625 1.87760416666667  C 9.11762152777778 0.625868055555553  11.4600694444444 0  14 0  C 16.5399305555556 0  18.8823784722222 0.625868055555553  21.02734375 1.87760416666667  C 23.1723090277778 3.12934027777778  24.8706597222222 4.82769097222222  26.1223958333333 6.97265625  Z " fill-rule="nonzero" fill="#ffffff" stroke="none" transform="matrix(1 0 0 1 2347 315 )" />
  </g>
</svg>