<?xml version="1.0" encoding="utf-8"?>
<svg version="1.1" xmlns:xlink="http://www.w3.org/1999/xlink" width="12px" height="12px" viewBox="1816 982  12 12" xmlns="http://www.w3.org/2000/svg">
  <path d="M 1822 982  C 1825.36 982  1828 984.64  1828 988  C 1828 991.36  1825.36 994  1822 994  C 1818.64 994  1816 991.36  1816 988  C 1816 984.64  1818.64 982  1822 982  Z " fill-rule="nonzero" fill="#ffffff" stroke="none" />
  <path d="M 1822 982.5  C 1825.08 982.5  1827.5 984.92  1827.5 988  C 1827.5 991.08  1825.08 993.5  1822 993.5  C 1818.92 993.5  1816.5 991.08  1816.5 988  C 1816.5 984.92  1818.92 982.5  1822 982.5  Z " stroke-width="1" stroke="#797979" fill="none" />
  <path d="M 1822 991  C 1820.32 991  1819 989.68  1819 988  C 1819 986.32  1820.32 985  1822 985  C 1823.68 985  1825 986.32  1825 988  C 1825 989.68  1823.68 991  1822 991  " fill-rule="nonzero" fill="#797979" stroke="none" />
</svg>