<?xml version="1.0" encoding="utf-8"?>
<svg version="1.1" xmlns:xlink="http://www.w3.org/1999/xlink" width="16px" height="10px" xmlns="http://www.w3.org/2000/svg">
  <g transform="matrix(1 0 0 1 -1164 -657 )">
    <path d="M 15.8396793587174 8.1786941580756  C 15.9465597862391 8.29324169530355  16 8.42497136311569  16 8.57388316151203  C 16 8.72279495990836  15.9465597862391 8.8545246277205  15.8396793587174 8.96907216494845  L 15.0380761523046 9.82817869415807  C 14.9311957247829 9.94272623138602  14.8082832331329 10  14.6693386773547 10  C 14.5303941215765 10  14.4074816299265 9.94272623138602  14.3006012024048 9.82817869415807  L 8 3.07560137457045  L 1.69939879759519 9.82817869415807  C 1.59251837007348 9.94272623138602  1.46960587842351 10  1.33066132264529 10  C 1.19171676686707 10  1.0688042752171 9.94272623138602  0.961923847695391 9.82817869415807  L 0.160320641282565 8.96907216494845  C 0.0534402137608552 8.8545246277205  0 8.72279495990836  0 8.57388316151203  C 0 8.42497136311569  0.0534402137608552 8.29324169530355  0.160320641282565 8.1786941580756  L 7.6312625250501 0.171821305841925  C 7.73814295257181 0.0572737686139735  7.86105544422178 0  8 0  C 8.13894455577822 0  8.26185704742819 0.0572737686139735  8.3687374749499 0.171821305841925  L 15.8396793587174 8.1786941580756  Z " fill-rule="nonzero" fill="#ffffff" stroke="none" fill-opacity="0.0549019607843137" transform="matrix(1 0 0 1 1164 657 )" />
  </g>
</svg>