<?xml version="1.0" encoding="utf-8"?>
<svg version="1.1" xmlns:xlink="http://www.w3.org/1999/xlink" width="14px" height="10px" xmlns="http://www.w3.org/2000/svg">
  <g transform="matrix(1 0 0 1 -2591 -488 )">
    <path d="M 13.7470967741935 1.38047138047138  C 13.9156989247312 1.53759820426487  14 1.72839506172839  14 1.95286195286195  C 14 2.17732884399551  13.9156989247312 2.36812570145903  13.7470967741935 2.52525252525253  L 7.20774193548387 8.61952861952862  L 5.97935483870968 9.76430976430976  C 5.81075268817204 9.92143658810325  5.60602150537635 10  5.36516129032258 10  C 5.12430107526882 10  4.91956989247312 9.92143658810325  4.75096774193548 9.76430976430976  L 3.52258064516129 8.61952861952862  L 0.252903225806452 5.57239057239057  C 0.0843010752688173 5.41526374859708  0 5.22446689113356  0 5  C 0 4.77553310886644  0.0843010752688173 4.58473625140292  0.252903225806452 4.42760942760943  L 1.48129032258065 3.28282828282828  C 1.64989247311828 3.12570145903479  1.85462365591398 3.04713804713805  2.09548387096774 3.04713804713805  C 2.33634408602151 3.04713804713805  2.5410752688172 3.12570145903479  2.70967741935484 3.28282828282828  L 5.36516129032258 5.76599326599327  L 11.2903225806452 0.235690235690236  C 11.4589247311828 0.0785634118967449  11.6636559139785 0  11.9045161290323 0  C 12.145376344086 0  12.3501075268817 0.0785634118967449  12.5187096774194 0.235690235690236  L 13.7470967741935 1.38047138047138  Z " fill-rule="nonzero" fill="#ffffff" stroke="none" transform="matrix(1 0 0 1 2591 488 )" />
  </g>
</svg>