<?xml version="1.0" encoding="utf-8"?>
<svg version="1.1" xmlns:xlink="http://www.w3.org/1999/xlink" width="424px" height="172px" xmlns="http://www.w3.org/2000/svg">
  <g transform="matrix(1 0 0 1 -1653 -1052 )">
    <path d="M 1654 1057  A 4 4 0 0 1 1658 1053 L 2072 1053  A 4 4 0 0 1 2076 1057 L 2076 1219  A 4 4 0 0 1 2072 1223 L 1658 1223  A 4 4 0 0 1 1654 1219 L 1654 1057  Z " fill-rule="nonzero" fill="#ffffff" stroke="none" fill-opacity="0.0470588235294118" />
    <path d="M 1653.5 1057  A 4.5 4.5 0 0 1 1658 1052.5 L 2072 1052.5  A 4.5 4.5 0 0 1 2076.5 1057 L 2076.5 1219  A 4.5 4.5 0 0 1 2072 1223.5 L 1658 1223.5  A 4.5 4.5 0 0 1 1653.5 1219 L 1653.5 1057  Z " stroke-width="1" stroke-dasharray="9,4" stroke="#ffffff" fill="none" stroke-opacity="0.298039215686275" stroke-dashoffset="0.5" />
  </g>
</svg>