<?xml version="1.0" encoding="utf-8"?>
<svg version="1.1" xmlns:xlink="http://www.w3.org/1999/xlink" width="17px" height="12px" xmlns="http://www.w3.org/2000/svg">
  <g transform="matrix(1 0 0 1 -2445 -1102 )">
    <path d="M 16.6929032258065 1.65656565656566  C 16.8976344086022 1.84511784511784  17 2.07407407407407  17 2.34343434343434  C 17 2.61279461279461  16.8976344086022 2.84175084175084  16.6929032258065 3.03030303030303  L 8.75225806451613 10.3434343434343  L 7.26064516129032 11.7171717171717  C 7.05591397849462 11.9057239057239  6.80731182795699 12  6.51483870967742 12  C 6.22236559139785 12  5.97376344086022 11.9057239057239  5.76903225806452 11.7171717171717  L 4.27741935483871 10.3434343434343  L 0.307096774193548 6.68686868686869  C 0.10236559139785 6.4983164983165  0 6.26936026936027  0 6  C 0 5.73063973063973  0.10236559139785 5.5016835016835  0.307096774193548 5.31313131313131  L 1.79870967741935 3.93939393939394  C 2.00344086021505 3.75084175084175  2.25204301075269 3.65656565656566  2.54451612903226 3.65656565656566  C 2.83698924731183 3.65656565656566  3.08559139784946 3.75084175084175  3.29032258064516 3.93939393939394  L 6.51483870967742 6.91919191919192  L 13.7096774193548 0.282828282828283  C 13.9144086021505 0.0942760942760938  14.1630107526882 0  14.4554838709677 0  C 14.7479569892473 0  14.9965591397849 0.0942760942760938  15.2012903225806 0.282828282828283  L 16.6929032258065 1.65656565656566  Z " fill-rule="nonzero" fill="#ffffff" stroke="none" transform="matrix(1 0 0 1 2445 1102 )" />
  </g>
</svg>