<?xml version="1.0" encoding="utf-8"?>
<svg version="1.1" xmlns:xlink="http://www.w3.org/1999/xlink" width="131px" height="35px" xmlns="http://www.w3.org/2000/svg">
  <defs>
    <mask fill="white" id="clip2340">
      <path d="M 0 31.71875  L 0 3.28125  C 0 1.44375000000018  1.80125000000022 0  4.09375 0  L 89.855744949497 0  L 126.90625 0  C 129.19875 0  131 1.44375000000018  131 3.28125  L 131 31.71875  C 131 33.5562499999998  129.19875 35  126.90625 35  L 62.9775883838363 35  L 4.09375 35  C 1.80125000000022 35  0 33.5562499999998  0 31.71875  Z " fill-rule="evenodd" />
    </mask>
  </defs>
  <g transform="matrix(1 0 0 1 -2289 -2348 )">
    <path d="M 0 31.71875  L 0 3.28125  C 0 1.44375000000018  1.80125000000022 0  4.09375 0  L 89.855744949497 0  L 126.90625 0  C 129.19875 0  131 1.44375000000018  131 3.28125  L 131 31.71875  C 131 33.5562499999998  129.19875 35  126.90625 35  L 62.9775883838363 35  L 4.09375 35  C 1.80125000000022 35  0 33.5562499999998  0 31.71875  Z " fill-rule="nonzero" fill="#aaaaaa" stroke="none" fill-opacity="0" transform="matrix(1 0 0 1 2289 2348 )" />
    <path d="M 0 31.71875  L 0 3.28125  C 0 1.44375000000018  1.80125000000022 0  4.09375 0  L 89.855744949497 0  L 126.90625 0  C 129.19875 0  131 1.44375000000018  131 3.28125  L 131 31.71875  C 131 33.5562499999998  129.19875 35  126.90625 35  L 62.9775883838363 35  L 4.09375 35  C 1.80125000000022 35  0 33.5562499999998  0 31.71875  Z " stroke-width="4" stroke="#ffffff" fill="none" transform="matrix(1 0 0 1 2289 2348 )" mask="url(#clip2340)" />
  </g>
</svg>