<?xml version="1.0" encoding="utf-8"?>
<svg version="1.1" xmlns:xlink="http://www.w3.org/1999/xlink" width="10px" height="6px" xmlns="http://www.w3.org/2000/svg">
  <g transform="matrix(1 0 0 1 -1498 -225 )">
    <path d="M 9.814453125 0.197916666666667  C 9.93815104166667 0.32986111111111  10 0.48611111111111  10 0.666666666666667  C 10 0.847222222222222  9.93815104166667 1.00347222222222  9.814453125 1.13541666666667  L 5.439453125 5.80208333333333  C 5.31575520833333 5.93402777777778  5.16927083333333 6  5 6  C 4.83072916666667 6  4.68424479166667 5.93402777777778  4.560546875 5.80208333333333  L 0.185546875 1.13541666666667  C 0.0618489583333333 1.00347222222222  0 0.847222222222222  0 0.666666666666667  C 0 0.48611111111111  0.0618489583333333 0.32986111111111  0.185546875 0.197916666666667  C 0.309244791666667 0.0659722222222214  0.455729166666667 0  0.625 0  L 9.375 0  C 9.54427083333333 0  9.69075520833333 0.0659722222222214  9.814453125 0.197916666666667  Z " fill-rule="nonzero" fill="#ffffff" stroke="none" transform="matrix(1 0 0 1 1498 225 )" />
  </g>
</svg>