<?xml version="1.0" encoding="utf-8"?>
<svg version="1.1" xmlns:xlink="http://www.w3.org/1999/xlink" width="22px" height="24px" xmlns="http://www.w3.org/2000/svg">
  <g transform="matrix(1 0 0 1 -1325 -216 )">
    <path d="M 11 22.9285714285714  C 11.1410256410256 22.9285714285714  11.2115384615385 22.8571428571429  11.2115384615385 22.7142857142857  C 11.2115384615385 22.5714285714286  11.1410256410256 22.5  11 22.5  C 10.4799679487179 22.5  10.0326522435897 22.3102678571429  9.65805288461539 21.9308035714286  C 9.28345352564103 21.5513392857143  9.09615384615384 21.0982142857143  9.09615384615384 20.5714285714286  C 9.09615384615384 20.4285714285714  9.02564102564103 20.3571428571429  8.88461538461539 20.3571428571429  C 8.74358974358974 20.3571428571429  8.67307692307692 20.4285714285714  8.67307692307692 20.5714285714286  C 8.67307692307692 21.2232142857143  8.90004006410256 21.7790178571429  9.35396634615384 22.2388392857143  C 9.80789262820513 22.6986607142857  10.3565705128205 22.9285714285714  11 22.9285714285714  Z M 20.796875 17.6785714285714  C 21.1582532051282 18.0892857142857  21.5592948717949 18.4821428571429  22 18.8571428571429  C 22 19.3214285714286  21.8325320512821 19.7232142857143  21.4975961538462 20.0625  C 21.1626602564103 20.4017857142857  20.7660256410256 20.5714285714286  20.3076923076923 20.5714285714286  L 14.3846153846154 20.5714285714286  C 14.3846153846154 21.5178571428571  14.0540865384615 22.3258928571429  13.3930288461538 22.9955357142857  C 12.7319711538462 23.6651785714286  11.9342948717949 24  11 24  C 10.0657051282051 24  9.26802884615384 23.6651785714286  8.60697115384616 22.9955357142857  C 7.94591346153846 22.3258928571429  7.61538461538461 21.5178571428571  7.61538461538461 20.5714285714286  L 1.69230769230769 20.5714285714286  C 1.23397435897436 20.5714285714286  0.837339743589744 20.4017857142857  0.502403846153846 20.0625  C 0.167467948717949 19.7232142857143  0 19.3214285714286  0 18.8571428571429  C 0.440705128205128 18.4821428571429  0.841746794871795 18.0892857142857  1.203125 17.6785714285714  C 1.56450320512821 17.2678571428571  1.93910256410256 16.734375  2.32692307692308 16.078125  C 2.71474358974359 15.421875  3.04306891025641 14.7142857142857  3.31189903846154 13.9553571428571  C 3.58072916666667 13.1964285714286  3.80108173076923 12.2767857142857  3.97295673076923 11.1964285714286  C 4.14483173076923 10.1160714285714  4.23076923076923 8.95535714285714  4.23076923076923 7.71428571428571  C 4.23076923076923 6.35714285714286  4.74639423076923 5.09598214285714  5.77764423076923 3.93080357142857  C 6.80889423076923 2.765625  8.16185897435897 2.05803571428571  9.83653846153846 1.80803571428571  C 9.76602564102564 1.63839285714285  9.73076923076923 1.46428571428571  9.73076923076923 1.28571428571429  C 9.73076923076923 0.928571428571428  9.85416666666667 0.624999999999999  10.1009615384615 0.375  C 10.3477564102564 0.125000000000001  10.6474358974359 0  11 0  C 11.3525641025641 0  11.6522435897436 0.125000000000001  11.8990384615385 0.375  C 12.1458333333333 0.624999999999999  12.2692307692308 0.928571428571428  12.2692307692308 1.28571428571429  C 12.2692307692308 1.46428571428571  12.2339743589744 1.63839285714285  12.1634615384615 1.80803571428571  C 13.838141025641 2.05803571428571  15.1911057692308 2.765625  16.2223557692308 3.93080357142857  C 17.2536057692308 5.09598214285714  17.7692307692308 6.35714285714286  17.7692307692308 7.71428571428571  C 17.7692307692308 8.95535714285714  17.8551682692308 10.1160714285714  18.0270432692308 11.1964285714286  C 18.1989182692308 12.2767857142857  18.4192708333333 13.1964285714286  18.6881009615385 13.9553571428571  C 18.9569310897436 14.7142857142857  19.2852564102564 15.421875  19.6730769230769 16.078125  C 20.0608974358974 16.734375  20.4354967948718 17.2678571428571  20.796875 17.6785714285714  Z " fill-rule="nonzero" fill="#ffffff" stroke="none" transform="matrix(1 0 0 1 1325 216 )" />
  </g>
</svg>