<?xml version="1.0" encoding="utf-8"?>
<svg version="1.1" xmlns:xlink="http://www.w3.org/1999/xlink" width="16px" height="16px" xmlns="http://www.w3.org/2000/svg">
  <g transform="matrix(1 0 0 1 -1337 -216 )">
    <path d="M 1345 217  C 1348.92 217  1352 220.08  1352 224  C 1352 227.92  1348.92 231  1345 231  C 1341.08 231  1338 227.92  1338 224  C 1338 220.08  1341.08 217  1345 217  Z " fill-rule="nonzero" fill="#ff5757" stroke="none" />
    <path d="M 1345 217  C 1348.92 217  1352 220.08  1352 224  C 1352 227.92  1348.92 231  1345 231  C 1341.08 231  1338 227.92  1338 224  C 1338 220.08  1341.08 217  1345 217  Z " stroke-width="2" stroke="#1f2633" fill="none" />
  </g>
</svg>